# Blender 5.1.1
# www.blender.org
mtllib armario.mtl
o Cube.006
v 1.427085 0.000000 -4.032295
v 1.427085 0.000000 -3.432295
v -0.132915 0.000000 -3.432295
v -0.132915 0.000000 -4.032295
v 1.427086 2.200000 -4.032294
v 1.427085 2.200000 -3.432294
v -0.132915 2.200000 -3.432295
v -0.132915 2.200000 -4.032295
v -0.054916 2.127553 -3.432295
v 1.349085 2.127553 -3.432294
v -0.054915 0.072447 -3.432295
v 1.349085 0.072447 -3.432295
v 1.349085 0.072447 -3.932295
v -0.054915 0.072447 -3.932295
v 1.349085 2.127553 -3.932294
v -0.054915 2.127553 -3.932295
v -0.054915 0.472447 -3.932295
v 1.349085 0.472447 -3.932295
v 1.349085 0.472447 -3.432295
v -0.054915 0.472447 -3.432295
v -0.054915 0.527007 -3.432295
v 1.349085 0.527007 -3.432295
v 1.349085 0.527007 -3.932295
v -0.054915 0.527007 -3.932295
v -0.054915 1.084152 -3.932295
v 1.349085 1.084152 -3.932295
v 1.349085 1.084152 -3.432295
v -0.054915 1.084152 -3.432295
v -0.054915 1.029592 -3.432295
v 1.349085 1.029592 -3.432295
v 1.349085 1.029592 -3.932295
v -0.054915 1.029592 -3.932295
v -0.054915 1.572447 -3.932295
v 1.349085 1.572447 -3.932295
v 1.349085 1.572447 -3.432295
v -0.054915 1.572447 -3.432295
v -0.054915 1.627007 -3.432295
v 1.349085 1.627007 -3.432295
v 1.349085 1.627007 -3.932295
v -0.054915 1.627007 -3.932295
vn -0.0000 -1.0000 -0.0000
vn -0.0000 1.0000 -0.0000
vn 1.0000 -0.0000 -0.0000
vn -1.0000 -0.0000 -0.0000
vn -0.0000 -0.0000 -1.0000
vn -0.0000 -0.0000 1.0000
s 0
usemtl Material
f 1//1 2//1 3//1 4//1
f 5//2 8//2 7//2 6//2
f 1//3 5//3 6//3 2//3
f 3//4 7//4 8//4 4//4
f 5//5 1//5 4//5 8//5
f 7//6 3//6 11//6 9//6
f 2//6 6//6 10//6 12//6
f 6//6 7//6 9//6 10//6
f 3//6 2//6 12//6 11//6
f 11//2 12//2 13//2 14//2
f 10//1 9//1 16//1 15//1
f 12//4 10//4 15//4 13//4
f 9//3 11//3 14//3 16//3
f 13//6 15//6 16//6 14//6
f 20//1 17//1 18//1 19//1
f 19//6 22//6 21//6 20//6
f 23//2 24//2 21//2 22//2
f 26//2 25//2 28//2 27//2
f 30//6 27//6 28//6 29//6
f 29//1 32//1 31//1 30//1
f 36//1 33//1 34//1 35//1
f 35//6 38//6 37//6 36//6
f 39//2 40//2 37//2 38//2
