# Blender 5.1.1
# www.blender.org
mtllib cadeira.mtl
o Cube.004
v -0.132938 0.698661 -2.264146
v -0.133155 0.698661 -1.565486
v -0.831816 0.698661 -1.565703
v -0.831598 0.698661 -2.264364
v -0.132938 0.768526 -2.264146
v -0.133155 0.768526 -1.565486
v -0.831816 0.768526 -1.565704
v -0.831598 0.768526 -2.264364
v -0.726984 0.698661 -1.670470
v -0.726984 -0.000000 -1.670470
v -0.796850 -0.000000 -1.670491
v -0.796850 0.698661 -1.670491
v -0.727006 0.698660 -1.600604
v -0.727006 -0.000000 -1.600604
v -0.796872 0.000000 -1.600625
v -0.796872 0.698661 -1.600625
v -0.796676 0.698661 -2.229420
v -0.796676 0.000000 -2.229420
v -0.726810 -0.000000 -2.229398
v -0.726810 0.698660 -2.229398
v -0.796654 0.698661 -2.299286
v -0.796654 -0.000000 -2.299286
v -0.726788 -0.000000 -2.299264
v -0.726788 0.698661 -2.299264
v -0.726788 0.803460 -2.299264
v -0.796654 0.803460 -2.299286
v -0.726810 0.803459 -2.229398
v -0.796676 0.803460 -2.229420
v -0.796650 1.584045 -2.311918
v -0.726784 1.584044 -2.311896
v -0.796629 1.572532 -2.380829
v -0.726763 1.572532 -2.380807
v -0.726785 1.547540 -2.307868
v -0.726795 1.269582 -2.278896
v -0.237732 1.269582 -2.278744
v -0.237723 1.547540 -2.307716
v -0.726764 1.540297 -2.377358
v -0.726773 1.262338 -2.348386
v -0.237711 1.262338 -2.348234
v -0.237702 1.540297 -2.377206
v -0.167834 1.572532 -2.380633
v -0.237700 1.572532 -2.380655
v -0.167856 1.584044 -2.311722
v -0.237722 1.584045 -2.311743
v -0.237747 0.803460 -2.229246
v -0.167881 0.803459 -2.229224
v -0.237726 0.803460 -2.299112
v -0.167860 0.803460 -2.299090
v -0.167860 0.698661 -2.299090
v -0.167860 -0.000000 -2.299090
v -0.237726 -0.000000 -2.299112
v -0.237726 0.698661 -2.299112
v -0.167882 0.698660 -2.229224
v -0.167882 -0.000000 -2.229224
v -0.237748 0.000000 -2.229246
v -0.237748 0.698661 -2.229246
v -0.237943 0.698661 -1.600451
v -0.237943 0.000000 -1.600451
v -0.168077 -0.000000 -1.600430
v -0.168077 0.698660 -1.600430
v -0.237922 0.698661 -1.670317
v -0.237922 -0.000000 -1.670317
v -0.168056 -0.000000 -1.670296
v -0.168056 0.698661 -1.670296
vn -0.0000 -1.0000 -0.0000
vn -0.0000 1.0000 -0.0000
vn 1.0000 -0.0000 0.0003
vn -0.0003 -0.0000 1.0000
vn -1.0000 -0.0000 -0.0003
vn 0.0003 -0.0000 -1.0000
vn -0.0003 0.1051 0.9945
vn 0.0003 -0.1054 -0.9944
vn 0.0001 0.9863 -0.1648
vn -0.0000 0.9946 -0.1037
vn -0.0000 -0.9946 0.1037
vn -0.0003 0.1037 0.9946
vn 0.0003 -0.1037 -0.9946
s 0
usemtl Material
f 1//1 2//1 3//1 4//1
f 5//2 8//2 7//2 6//2
f 1//3 5//3 6//3 2//3
f 2//4 6//4 7//4 3//4
f 3//5 7//5 8//5 4//5
f 5//6 1//6 4//6 8//6
f 11//6 12//6 9//6 10//6
f 13//4 16//4 15//4 14//4
f 9//3 13//3 14//3 10//3
f 11//5 15//5 16//5 12//5
f 12//2 16//2 13//2 9//2
f 22//5 18//5 17//5 21//5
f 24//3 20//3 19//3 23//3
f 20//4 17//4 18//4 19//4
f 22//6 21//6 24//6 23//6
f 24//6 21//6 26//6 25//6
f 17//4 20//4 27//4 28//4
f 20//3 24//3 25//3 27//3
f 21//5 17//5 28//5 26//5
f 26//5 28//5 29//5 31//5
f 27//3 25//3 32//3 30//3
f 28//7 27//7 30//7 29//7
f 25//8 26//8 31//8 32//8
f 31//9 29//9 30//9 32//9
f 36//10 40//10 37//10 33//10
f 38//5 34//5 33//5 37//5
f 39//11 35//11 34//11 38//11
f 40//3 36//3 35//3 39//3
f 36//12 33//12 34//12 35//12
f 40//13 39//13 38//13 37//13
f 42//9 44//9 43//9 41//9
f 48//8 47//8 42//8 41//8
f 45//7 46//7 43//7 44//7
f 46//3 48//3 41//3 43//3
f 47//5 45//5 44//5 42//5
f 52//5 56//5 45//5 47//5
f 53//3 49//3 48//3 46//3
f 56//4 53//4 46//4 45//4
f 49//6 52//6 47//6 48//6
f 51//6 52//6 49//6 50//6
f 53//4 56//4 55//4 54//4
f 49//3 53//3 54//3 50//3
f 51//5 55//5 56//5 52//5
f 61//2 57//2 60//2 64//2
f 62//5 58//5 57//5 61//5
f 64//3 60//3 59//3 63//3
f 60//4 57//4 58//4 59//4
f 62//6 61//6 64//6 63//6
