# Blender 5.1.1
# www.blender.org
mtllib monstah.mtl
o Plane
v -1.902086 -28.333340 28.866823
v -0.415926 -29.338312 28.926176
v -2.892869 -29.820320 29.949551
v -1.498978 -30.768433 30.010504
v -2.262161 -30.382767 30.113455
v -3.146317 -28.955877 29.301485
v -0.552920 -30.700039 29.418695
v -0.996217 -28.602983 28.769539
v -2.644828 -29.555031 29.842777
v -1.340693 -30.446936 29.894220
v -1.999638 -30.009556 29.893093
v -2.253433 -28.928619 29.355877
v -0.874684 -29.871271 29.409998
v -2.852205 -29.030346 29.451303
v -0.744391 -30.451998 29.543289
v -1.587021 -29.428484 29.432983
v -3.139188 -29.902355 29.984879
v -1.484715 -31.022804 30.063517
v -2.391189 -30.567612 30.193869
v -1.964145 -28.401701 28.767698
v -0.439256 -29.418467 28.826473
v -3.439650 -28.830435 29.210787
v -0.320410 -30.924608 29.353456
v -0.916996 -28.499165 28.588676
v -2.573141 -30.840935 30.142843
v -3.484460 -30.069452 29.855928
v -1.502774 -31.407173 29.955725
v -2.313750 -28.427462 28.474962
v -0.321101 -29.769173 28.557934
v -3.840816 -28.772110 28.960806
v -0.110468 -31.282066 29.126030
v -1.170726 -28.886160 28.459457
v -2.238858 -29.428659 29.794725
v -1.375606 -30.030012 29.824568
v -2.066356 -29.550993 29.797596
v -1.551015 -29.911764 29.815750
v -2.101165 -29.629507 29.762514
v -1.608581 -29.975018 29.779449
v -1.903309 -29.780184 29.754704
v -1.816757 -29.842188 29.757444
v -2.790299 -31.170231 30.056597
v -3.896889 -30.287159 29.670094
v -1.540074 -31.874802 29.786987
v -2.511772 -28.341412 28.030846
v -0.148997 -29.942774 28.126345
v -4.368796 -28.799765 28.522472
v 0.069597 -31.787632 28.709009
v -1.134045 -28.858685 28.064167
v -4.176594 -30.702377 29.399353
v -1.797038 -32.289932 29.509708
v -2.988203 -31.489578 29.672932
v -2.733436 -28.507229 27.545635
v -0.195951 -30.235315 27.643398
v -4.856253 -29.022087 28.043892
v 0.054646 -32.316669 28.234257
v -1.255280 -29.071558 27.588638
v -3.206815 -31.854118 28.847120
v -4.479918 -31.074022 28.595179
v -1.982203 -32.678459 28.668957
v -2.825979 -28.675308 26.577351
v -0.236251 -30.432585 26.674749
v -5.127245 -29.392784 27.265432
v -0.119444 -32.740044 27.464258
v -1.281810 -29.207582 26.558710
v -3.425335 -32.227386 28.011494
v -4.620704 -31.368677 27.702698
v -2.144193 -32.926514 27.762203
v -1.688319 -27.445559 24.409414
v 0.689992 -29.010841 24.503244
v -4.842526 -29.624546 26.335419
v -0.351421 -32.614784 26.515617
v 0.002018 -27.576658 24.166571
v -4.722679 -31.937534 26.701975
v -2.553273 -33.299183 26.774021
v -3.689708 -32.699348 26.994629
v -4.894619 -30.344969 25.469717
v -0.926950 -32.974632 25.634445
v -1.846782 -27.946951 23.016035
v 0.517896 -29.189795 23.130421
v -0.182241 -27.849998 23.115585
v -3.949436 -33.180885 25.692749
v -4.750943 -32.614063 25.460117
v -3.071346 -33.642406 25.534662
v -5.029081 -31.573799 24.696318
v -1.955186 -33.586407 24.831615
v -3.539826 -31.017006 23.968475
v -1.755854 -32.111473 24.048391
v -2.780395 -31.807796 24.058407
v -4.025616 -33.377079 24.533232
v -4.014602 -33.379478 24.226786
v -3.642156 -32.892014 23.837481
v -3.864395 -33.182167 23.965118
v -3.452850 -32.633648 23.925476
v -4.733835 -31.570427 29.168400
v -2.378624 -33.106548 29.252607
v -5.126636 -30.506641 28.176699
v -1.237224 -33.056564 28.297661
v -4.924631 -30.255323 28.671040
v -1.114473 -32.766136 28.789036
v -4.551170 -31.347404 29.710676
v -2.269396 -32.859322 29.807684
v -5.186206 -31.559029 29.975349
v -2.256742 -33.499283 30.096922
v -5.184056 -32.263962 30.665112
v -2.936507 -33.759533 30.769751
v -5.261788 -32.364571 30.376701
v -2.984515 -33.873615 30.478836
v -5.278834 -31.675781 29.712301
v -2.314188 -33.634838 29.835014
v -0.631258 -26.744246 28.150312
v 0.611648 -27.607010 28.208775
v -0.616607 -26.692610 28.085136
v 0.657178 -27.577477 28.143774
v -0.883591 -26.494362 28.090248
v 0.933219 -27.756870 28.164562
v -0.879362 -26.556181 28.158718
v 0.870779 -27.772892 28.231281
v -0.532260 -30.998589 22.440222
v -1.677785 -30.763418 22.451933
v -2.624978 -30.218073 22.226620
v 2.847901 -29.547626 19.311600
v -2.870242 -28.999084 18.698095
v 0.114016 -30.303858 19.698254
v -2.286821 -25.662483 17.566916
v 0.108672 -24.430849 17.552156
v 2.408531 -25.717121 17.714796
v -1.297290 -26.577810 21.139713
v 1.252221 -26.842962 21.233177
v 0.005526 -26.548857 21.497532
v 1.965801 -29.821165 12.644300
v 2.639518 -25.956547 13.185743
v 0.508533 -24.207653 13.600644
v -2.168047 -25.979721 12.848274
v -2.627682 -29.884865 13.094089
v -0.357654 -30.841267 12.721098
v 1.488017 -33.624989 12.539186
v -0.397470 -33.601254 11.523850
v -2.441741 -33.082378 11.476175
v -2.105762 -31.292019 17.536152
v 2.470353 -31.853489 18.147970
v 0.254873 -31.580559 18.459404
v -2.292812 -30.984798 11.579010
v -0.984404 -31.112659 11.666239
v -1.420253 -34.301609 9.772497
v -2.663197 -34.179264 9.626554
v -0.052005 -31.232061 11.978399
v 1.065718 -31.203156 11.586048
v 1.336057 -35.053196 11.865437
v 0.341383 -34.764656 12.042418
v 3.902685 -37.461163 13.147973
v 3.551715 -38.028851 12.897870
v 4.201185 -38.298176 12.661395
v 4.540650 -37.727703 12.942506
v -4.376748 -37.389519 9.520630
v -4.367032 -37.341110 8.788387
v -3.558056 -37.415291 8.870523
v -3.571820 -37.464386 9.618402
v 1.907682 -26.569851 10.188453
v -1.837928 -26.739693 10.175088
v 1.947041 -25.094915 10.697701
v -1.910212 -25.292646 10.155313
v 1.587354 -23.541878 7.545053
v 1.547861 -24.781197 7.574194
v -0.396051 -23.793142 7.202908
v -0.455523 -25.240326 7.255505
v 5.878798 -35.835964 22.094349
v 4.903172 -35.742073 22.056133
v 4.732437 -36.888557 21.496616
v 5.504331 -36.955452 21.495026
v -3.123126 -35.567158 20.676407
v -4.087785 -35.543076 20.603624
v -3.713478 -36.497086 19.886591
v -2.945306 -36.556755 19.949537
v 0.781854 -27.004936 23.017715
v 1.013613 -26.661180 23.437220
v 1.505738 -27.049305 23.409004
v 1.260835 -27.373388 22.989626
v -0.086583 -26.011143 23.340117
v 0.488320 -26.323179 23.414301
v 0.291262 -26.701187 22.997791
v -0.255214 -26.401480 22.926226
v 1.072718 -24.029434 4.789549
v 1.168743 -23.185598 4.366308
v 1.720591 -23.847742 4.953295
v 1.805532 -23.075716 4.537930
v -1.264625 -29.258188 27.882690
v -1.264625 -29.258190 27.882690
v -1.264625 -29.258188 27.882690
v -1.373926 -29.124361 28.020973
v -1.264625 -29.258188 27.882690
v -1.135662 -29.283230 28.030157
v -1.264625 -29.258188 27.882690
v -2.579638 -30.145739 30.085701
v -1.925598 -30.593323 30.113503
v -2.680644 -28.689327 29.081228
v -0.464402 -30.178581 29.177650
v -3.157222 -29.373129 29.638838
v -0.961968 -30.855717 29.737705
v -1.448344 -28.399614 28.819689
v -0.645249 -28.946436 28.851503
v -2.771353 -29.734539 29.916451
v -1.463044 -30.626194 29.971071
v -2.339882 -29.896862 29.944815
v -1.775616 -30.285194 29.966263
v -2.171029 -30.252602 30.047848
v -2.088853 -28.758005 29.111294
v -0.755842 -29.660013 29.164568
v -2.561429 -28.883726 29.322447
v -0.711255 -30.136108 29.400959
v -2.999335 -28.997892 29.370852
v -0.652503 -30.578220 29.475428
v -2.856420 -29.309166 29.673756
v -1.018429 -30.553581 29.751768
v -1.349092 -29.103632 29.079004
v -1.819584 -29.089861 29.296213
v -1.179879 -29.528774 29.319944
v -2.331004 -30.481358 30.157351
v -2.765799 -30.292130 30.154142
v -1.996070 -30.815750 30.191223
v -3.015245 -29.869904 29.969824
v -1.500269 -30.898129 30.039078
v -3.293057 -28.897934 29.250593
v -0.440512 -30.814526 29.380512
v -2.868329 -28.541618 28.942013
v -0.245095 -30.298534 29.057163
v -2.004423 -28.128777 28.755720
v -0.180269 -29.360283 28.829580
v -3.456112 -29.348547 29.615395
v -0.825593 -31.120697 29.738239
v -1.424565 -28.244356 28.580753
v -0.491748 -28.875374 28.618217
v -0.751807 -28.254665 28.561565
v -2.477941 -30.698030 30.167145
v -3.028567 -30.523106 30.076763
v -2.105995 -31.147058 30.126163
v -3.301826 -29.981508 29.923111
v -1.493352 -31.204029 30.012444
v -3.622870 -28.795431 29.105324
v -0.216735 -31.085169 29.258978
v -3.189300 -28.453791 28.637300
v -0.033549 -30.577152 28.772629
v -2.211924 -28.460732 28.648775
v -0.397874 -29.677874 28.724113
v -3.863291 -29.400284 29.427818
v -0.715076 -31.520905 29.574713
v -1.655783 -28.602766 28.440233
v -0.725674 -29.229465 28.478065
v -1.162669 -28.864338 28.602638
v -2.186476 -29.160055 29.560915
v -1.130284 -29.890196 29.599085
v -2.209230 -29.555643 29.876919
v -1.508892 -30.045267 29.901112
v -1.804552 -29.444109 29.565725
v -1.532074 -29.634937 29.575443
v -1.959303 -29.929319 29.841709
v -1.937915 -29.944904 29.842344
v -1.949921 -29.675446 29.727587
v -1.703077 -29.850399 29.735725
v -2.361782 -29.632694 29.843147
v -1.520177 -30.215445 29.873844
v -3.695483 -30.172520 29.776220
v -1.515388 -31.642647 29.885740
v -3.336678 -30.801605 29.967337
v -2.240054 -31.541046 30.026257
v -2.681192 -31.003328 30.116566
v -2.410804 -28.369970 28.259579
v -0.222486 -29.848530 28.349659
v -3.579883 -28.404846 28.167959
v 0.170384 -30.935455 28.321268
v -4.109338 -28.771212 28.753693
v -0.005343 -31.533817 28.930916
v -4.377510 -29.526854 29.107317
v -0.631341 -32.048031 29.275333
v -1.143854 -28.859171 28.270138
v -1.713457 -28.527876 28.028419
v -0.612736 -29.276747 28.072628
v -4.050701 -30.425371 29.533102
v -1.600543 -32.072533 29.652483
v -3.576449 -31.120129 29.603148
v -2.418572 -31.890450 29.659042
v -2.889608 -31.327908 29.923336
v -2.609807 -28.378849 27.804064
v -0.137235 -30.059074 27.901712
v -3.898165 -28.566919 27.670923
v 0.158711 -31.307869 27.829763
v -4.576673 -28.867384 28.303713
v 0.089183 -32.006725 28.494246
v -4.662930 -29.835733 28.835299
v -0.801984 -32.422390 28.996336
v -1.164963 -28.919500 27.846312
v -1.876858 -28.712254 27.550053
v -0.695167 -29.522240 27.594788
v -4.177626 -31.119522 29.188450
v -2.166213 -32.430092 29.265070
v -3.834506 -31.484463 28.795530
v -2.613619 -32.257080 28.826689
v -3.096064 -31.668873 29.286234
v -2.872405 -28.692322 27.188091
v -0.289970 -30.452393 27.285589
v -4.068967 -28.829006 26.807886
v 0.053985 -31.610207 26.973494
v -4.993802 -29.045963 27.524508
v 0.118372 -32.472176 27.721472
v -5.040459 -30.320646 27.861057
v -1.040918 -32.949944 28.003136
v -1.372169 -29.273989 27.223701
v -1.924740 -28.845623 26.530437
v -0.713228 -29.671152 26.573002
v -4.568405 -31.150803 28.118538
v -1.991136 -32.787666 28.184660
v -4.023145 -31.868258 27.955256
v -2.844810 -32.586056 27.973421
v -3.313769 -32.034431 28.435394
v -2.414907 -28.231119 25.609787
v 0.118068 -29.928211 25.706963
v -3.560822 -28.559063 25.376913
v 0.251714 -31.100700 25.533295
v -4.944971 -29.466690 26.807676
v -0.207744 -32.629013 26.998550
v -5.068315 -30.598488 27.146059
v -1.231528 -33.102913 27.277725
v -0.786717 -28.597588 25.472366
v -0.730120 -27.378143 24.385487
v 0.420036 -28.133163 24.429787
v -4.662974 -31.639755 27.224546
v -2.343166 -33.097290 27.287056
v -4.205997 -32.382935 26.933878
v -3.177509 -33.008301 26.963120
v -3.551033 -32.451347 27.524157
v -1.881248 -27.571121 23.850039
v 0.703788 -29.241842 23.953917
v -3.693460 -29.290457 24.494659
v -0.279705 -31.522802 24.636572
v -4.818470 -29.921574 25.878746
v -0.597943 -32.726864 26.049681
v -5.115096 -31.246523 26.209570
v -1.738739 -33.443665 26.340563
v 0.106145 -27.472424 23.517990
v -0.775377 -27.619671 22.929480
v 0.286013 -28.171659 22.968077
v -4.796597 -32.255234 26.148861
v -2.771429 -33.512245 26.229328
v -4.348876 -32.947884 25.640259
v -3.553892 -33.416344 25.675074
v -3.832378 -32.953926 26.428068
v -3.084186 -29.613827 23.466778
v -0.479078 -31.039967 23.611824
v -4.404167 -31.198299 24.340031
v -1.775429 -32.916229 24.448912
v -5.043748 -30.879139 25.108917
v -1.334030 -33.322926 25.267994
v -5.076747 -32.104622 25.107252
v -2.458570 -33.778763 25.224720
v -3.154588 -31.544544 24.024397
v -2.387589 -32.035122 24.055933
v -4.466713 -33.018661 24.637211
v -3.511746 -33.599041 24.681723
v -4.030277 -33.395370 24.356640
v -4.011990 -33.334450 24.846478
v -3.856920 -32.219437 23.978674
v -2.909291 -32.834572 24.012077
v -3.745834 -33.026443 23.877293
v -4.625540 -32.429165 24.200502
v -2.879057 -33.569031 24.278364
v -3.958276 -33.305458 24.100683
v -3.276016 -32.398067 24.010231
v -3.552695 -32.774010 23.857241
v -4.616585 -31.154285 28.768848
v -2.015222 -32.842087 28.855085
v -4.966298 -31.083004 28.575367
v -1.829672 -33.131962 28.677031
v -5.219462 -29.911446 27.692297
v -0.616008 -32.955475 27.851810
v -5.097470 -30.178869 28.233431
v -0.960568 -32.897926 28.358324
v -4.988223 -29.623514 28.254869
v -0.480712 -32.618450 28.409351
v -4.390236 -30.890396 29.373829
v -1.888576 -32.550987 29.481775
v -4.570665 -31.661030 29.629976
v -2.539291 -32.996357 29.715170
v -4.701838 -30.756895 29.288040
v -1.670187 -32.762325 29.396465
v -5.027582 -30.986263 29.381775
v -1.771912 -33.132393 29.496035
v -5.221680 -31.988468 30.455235
v -2.659804 -33.691048 30.570345
v -4.902957 -31.932411 30.308512
v -2.714243 -33.385429 30.405714
v -5.279399 -32.470078 30.702600
v -3.092736 -33.924374 30.805353
v -5.028312 -32.092422 29.875446
v -2.791883 -33.564098 29.966511
v -5.178341 -31.174910 28.994417
v -1.865764 -33.350010 29.110521
v -5.260144 -31.629890 29.887230
v -2.286146 -33.599655 30.014172
v -5.317863 -32.111496 30.134596
v -2.719079 -33.832985 30.249180
v -0.829076 -27.468472 28.320503
v 0.011396 -28.049749 28.359344
v -0.537936 -26.581583 28.063660
v 0.731871 -27.463615 28.124069
v -0.858620 -27.540865 28.418810
v -0.050457 -28.099491 28.457134
v -1.266387 -27.209963 28.342493
v 0.408140 -28.361080 28.408997
v -0.687762 -26.433092 28.028023
v 0.922204 -27.553223 28.097401
v -1.252398 -27.287434 28.440653
v 0.324179 -28.373592 28.503859
v -0.843737 -26.352016 28.071671
v 1.048625 -27.669746 28.149082
v -0.693912 -26.500509 28.107307
v 0.858292 -27.580139 28.175751
v -2.270620 -31.351156 23.585974
v -1.055758 -31.001251 22.486576
v -1.031890 -31.411953 23.250238
v -2.926499 -30.487911 23.102108
v -2.268553 -30.509205 22.361494
v 0.659813 -30.250637 21.345417
v 1.459412 -28.988316 21.309816
v -2.412036 -28.136108 20.966339
v -2.570966 -29.486544 20.979454
v 1.941718 -30.333803 20.157930
v -1.992046 -30.016367 19.632702
v -0.862871 -29.891466 20.828346
v -2.751449 -26.975721 17.865234
v -1.253562 -24.771107 17.512844
v 1.445832 -24.751835 17.575184
v 2.767012 -27.254744 18.156563
v -1.441679 -27.176666 21.816982
v -1.757885 -26.056479 19.755211
v 1.843330 -26.220358 19.897938
v 1.061028 -27.734591 21.935787
v 0.724785 -26.671190 21.454281
v -0.180985 -27.486740 22.560722
v -0.723308 -26.533703 21.414303
v 0.096724 -25.376642 19.714630
v 2.695203 -29.290752 15.587724
v 2.825409 -27.601645 13.031399
v 2.602688 -25.778021 15.302464
v 1.757943 -24.700598 13.475801
v 0.157434 -24.087950 15.433412
v -0.888174 -24.727295 13.444591
v -2.490930 -25.804111 15.228675
v -3.008660 -27.684616 13.229229
v -2.946987 -29.053333 15.518752
v -1.303778 -30.410271 12.992702
v 0.584061 -30.353077 12.685760
v 1.702137 -31.661392 12.852820
v 1.048344 -33.680897 12.676822
v -0.439905 -32.136410 11.911032
v -1.744830 -33.421249 11.749646
v -2.649308 -31.308252 12.652269
v -1.897665 -31.117447 14.717340
v -2.750470 -30.625477 17.771347
v 3.114829 -31.181854 18.431311
v 1.441447 -31.655815 15.164558
v -1.294331 -31.567080 17.596123
v 0.412317 -31.848686 19.605522
v 1.667214 -31.943989 18.071615
v -0.193718 -31.645302 14.839853
v -0.760991 -30.911228 12.252900
v -1.650380 -30.801640 11.697939
v -2.545107 -30.678574 12.200212
v -1.086003 -34.067223 10.364417
v -0.897161 -32.307919 10.828345
v -2.860513 -33.859921 10.172280
v -2.049127 -34.326241 9.510983
v -2.373015 -32.162262 10.701989
v 1.481930 -30.763893 11.846801
v 0.528093 -30.942268 11.733233
v -0.092062 -30.941978 12.319482
v 1.647928 -34.614464 11.897754
v 0.964922 -32.670380 11.572594
v 0.209797 -34.252159 11.950024
v 0.785329 -35.069962 11.967904
v -0.264036 -32.571438 11.919394
v 2.025805 -36.841255 12.486484
v 3.957547 -37.968647 13.167083
v 2.310544 -35.962189 12.525721
v 2.860824 -37.185997 12.277401
v 4.131166 -38.456749 12.818029
v 3.193118 -36.290909 12.478230
v 4.747451 -38.291725 12.864773
v 4.573833 -37.803623 13.213826
v -3.613218 -36.137997 8.958374
v -4.648810 -37.618515 9.097803
v -3.572026 -35.869324 9.980124
v -2.561080 -36.237671 9.081442
v -4.144954 -37.593540 8.699669
v -2.468268 -35.994350 10.117120
v -3.664262 -37.708485 9.200434
v -4.168119 -37.733459 9.598566
v -0.307499 -29.752344 12.528288
v -2.190391 -28.074667 11.611215
v 0.023790 -26.913549 10.170641
v 1.908751 -27.964888 11.382073
v 2.670305 -25.721704 11.744323
v -0.192453 -24.947485 10.204899
v -2.294055 -25.976011 11.357338
v -2.537272 -26.046495 10.169780
v 2.680039 -25.863466 10.285292
v 1.719739 -25.531826 8.958698
v 1.941368 -24.094936 7.621576
v 1.758010 -24.306528 9.102989
v -1.245443 -24.494059 8.812941
v -0.799548 -24.583334 7.167253
v -1.259276 -25.880281 8.739294
v 0.604929 -23.415644 7.366318
v 0.536891 -25.262623 7.422514
v 3.222214 -33.140675 20.977262
v 5.699900 -36.170071 22.385508
v 4.775853 -33.230141 21.018974
v 3.066442 -34.432640 20.384319
v 5.025471 -36.846134 21.998749
v 4.222587 -34.576111 20.342737
v 5.377326 -37.606205 21.622063
v 6.051754 -36.930141 22.008821
v -3.575481 -32.855026 19.873243
v -3.802410 -35.963543 20.890839
v -2.020620 -33.017597 20.092581
v -2.983096 -34.048271 19.165958
v -4.150695 -36.555649 20.368988
v -1.816706 -34.171955 19.376896
v -3.478363 -37.189236 19.923203
v -3.130078 -36.597126 20.445049
v 0.642387 -27.034374 23.688501
v 0.910748 -26.691212 23.197567
v 0.356235 -27.459358 23.100819
v 1.272551 -27.629276 23.691750
v 1.350488 -26.718737 23.436092
v 0.968274 -28.009209 23.078892
v 1.501864 -27.152225 23.163494
v 1.062124 -27.124704 22.924969
v 0.281643 -26.802338 23.673483
v 0.289463 -26.027067 23.389372
v -0.559352 -26.434055 23.616032
v 0.027874 -27.260324 23.088659
v 0.519247 -26.447048 23.180990
v -0.756614 -26.924898 23.009041
v 0.067929 -26.494886 22.883430
v -0.161855 -26.074907 23.091812
v 1.284299 -24.593140 12.165912
v -0.251913 -25.335161 11.613416
v 0.442954 -24.558746 5.776333
v 1.459475 -23.958134 4.728788
v 1.611361 -24.216537 6.041546
v 1.689656 -23.130985 5.715250
v 1.576853 -23.009966 4.164061
v 0.541854 -23.328199 5.434471
v 1.165168 -23.560432 4.353176
v 1.871160 -23.407671 4.539673
v -1.827907 -29.912903 29.038279
v -1.264625 -29.258190 27.882690
v -2.201907 -29.580275 28.933784
v -1.374670 -30.140497 28.973103
v -1.264625 -29.258190 27.882690
v -2.352138 -29.044313 28.546738
v -1.279199 -29.240343 27.901129
v -1.628959 -28.812099 28.343632
v -0.834746 -29.341665 28.374245
v -1.247430 -29.261526 27.902353
v -0.792517 -30.091398 28.618073
v -1.264625 -29.258188 27.882690
v -1.264625 -29.258188 27.882690
v -2.476772 -30.033215 30.029444
v -1.856092 -30.458946 30.054272
v -2.616524 -28.799313 29.194889
v -0.600289 -30.157906 29.281773
v -3.007302 -29.352201 29.656527
v -1.000167 -30.709343 29.744602
v -1.674397 -28.882885 29.074217
v -1.024215 -29.324465 29.098736
v -2.673669 -30.226995 30.123856
v -1.968227 -30.708340 30.155888
v -2.776159 -28.590603 28.998428
v -0.330374 -30.231550 29.105501
v -3.306728 -29.368061 29.625530
v -0.900304 -30.991219 29.736120
v -2.890738 -30.402863 30.114376
v -2.048960 -30.973587 30.157742
v -3.024643 -28.501322 28.808540
v -0.144653 -30.435158 28.933945
v -3.644447 -29.368568 29.533957
v -0.770708 -31.304546 29.668732
v -1.611311 -28.597912 28.592224
v -0.746504 -29.178583 28.627008
v -1.992071 -29.300993 29.563198
v -1.331511 -29.759182 29.586817
v -2.156000 -29.789093 29.846609
v -1.738619 -30.078917 29.861631
v -3.184954 -30.658810 30.037300
v -2.170192 -31.344007 30.092131
v -3.386315 -28.413885 28.411766
v 0.083315 -30.752270 28.557236
v -4.126023 -29.453051 29.280363
v -0.662046 -31.785637 29.439198
v -1.679044 -28.551273 28.241524
v -0.658629 -29.242270 28.282991
v -3.462685 -30.947407 29.833635
v -2.317251 -31.717508 29.894035
v -3.738051 -28.449993 27.936262
v 0.194448 -31.105743 28.093000
v -4.560654 -29.632448 28.937473
v -0.654298 -32.258278 29.108360
v -1.771435 -28.572369 27.807669
v -0.620227 -29.358845 27.852886
v -3.695307 -31.317673 29.239466
v -2.535815 -32.070950 29.282709
v -4.046281 -28.737690 27.307985
v 0.083450 -31.528561 27.470602
v -2.004941 -28.905666 27.187237
v -0.800550 -29.732014 27.230667
v -3.938722 -31.659023 28.378340
v -2.711019 -32.418526 28.400463
v -3.835212 -28.693106 26.109274
v 0.160239 -31.374197 26.272068
v -5.064496 -30.368631 27.537142
v -1.049481 -33.000259 27.677822
v -1.442114 -28.270733 25.471466
v -0.249482 -29.068594 25.514536
v -4.107554 -32.113113 27.466440
v -3.004916 -32.783722 27.488056
v -3.522183 -28.762674 24.841702
v 0.100500 -31.162481 24.990517
v -5.075342 -30.903105 26.694427
v -1.476219 -33.250172 26.822849
v -4.313410 -32.665188 26.366924
v -3.354624 -33.240204 26.402838
v -4.124472 -30.164753 24.416445
v -0.907583 -32.255005 24.552502
v -5.176935 -31.624321 25.705418
v -2.020368 -33.661522 25.838842
v -4.240462 -33.209187 24.763920
v -3.788468 -33.472996 24.785080
v -4.294969 -32.256390 24.052525
v -2.814691 -33.226967 24.112864
v -4.646790 -32.722141 24.425604
v -3.158303 -33.669250 24.494267
v -3.535362 -32.305523 23.978786
v -3.093979 -32.591637 23.992279
v -4.975541 -30.585667 28.125593
v -1.336222 -32.970764 28.247616
v -5.197174 -29.544239 27.776974
v -0.304122 -32.790123 27.943308
v -4.385190 -31.250637 29.271465
v -2.210332 -32.672813 29.357496
v -4.662819 -30.208250 28.921097
v -1.156660 -32.541649 29.054550
v -4.944291 -31.435884 29.931683
v -2.234051 -33.229691 30.037989
v -4.947335 -32.194897 30.271933
v -2.933486 -33.527840 30.362171
v -5.129554 -30.914696 29.030334
v -1.651518 -33.201965 29.149822
v -5.132597 -31.673710 29.370584
v -2.350953 -33.500118 29.474005
v -5.358020 -32.226582 30.531109
v -2.828899 -33.909332 30.650326
v -0.753975 -27.509981 28.352262
v -0.055974 -27.993063 28.386951
v -1.039095 -27.300518 28.304251
v 0.243602 -28.184523 28.357889
v -1.325087 -27.174662 28.385626
v 0.458109 -28.401964 28.455870
v -1.050580 -27.409954 28.441784
v 0.137862 -28.230135 28.492561
v -0.561003 -26.141417 27.955521
v 1.146365 -27.331886 28.030550
v -1.785461 -31.585312 23.561028
v -2.698406 -31.051723 23.498438
v 0.208021 -30.451321 22.401947
v -2.749754 -29.418457 22.132095
v 0.156304 -30.133736 21.002615
v -1.906565 -29.709579 20.749319
v -2.154850 -26.956612 20.160410
v 1.974393 -27.435135 20.421619
v 0.396329 -27.661974 22.478785
v -0.768947 -27.325689 22.441584
v -0.950480 -25.541878 19.687866
v 1.127189 -25.571064 19.745920
v 2.931651 -27.470106 15.443153
v 1.585642 -24.549480 15.366385
v -1.329575 -24.587612 15.328919
v -3.008073 -27.401611 15.414898
v -2.537449 -30.301613 15.150392
v 2.154299 -30.753963 15.426572
v 0.704388 -31.832279 15.022327
v -1.119615 -31.488731 14.683165
v -1.669280 -30.379368 12.525434
v -0.551151 -32.206116 11.377568
v -2.687559 -31.927216 11.279400
v -1.637462 -32.245468 10.602488
v 0.777319 -30.362495 12.140044
v 1.402261 -32.357773 11.756391
v -0.417830 -32.321373 12.048938
v 0.302443 -32.667366 11.702452
v 2.065091 -36.373566 12.556079
v 2.402576 -37.192360 12.365111
v 3.217506 -36.839931 12.329163
v 2.877631 -36.010063 12.601377
v 4.989296 -38.657379 13.233113
v -3.814948 -36.026787 9.413895
v -3.107449 -36.243912 8.835672
v -2.357631 -36.170631 9.598886
v -3.049893 -35.935287 10.250142
v -4.551328 -38.211067 9.043417
v -0.163708 -28.342873 11.472737
v -2.894760 -27.041887 11.576379
v 2.812086 -26.912996 11.454287
v 2.298032 -24.873146 9.068695
v -1.805992 -25.237438 8.733381
v 0.239108 -24.156158 8.961485
v 0.224603 -25.949524 8.830851
v 4.111815 -33.032501 21.184143
v 2.962160 -33.900406 20.736401
v 3.626617 -34.799187 20.250948
v 4.768545 -34.007305 20.680876
v 6.134463 -38.005901 22.461815
v -2.925974 -32.809544 20.164072
v -3.521823 -33.519218 19.483124
v -2.377554 -34.369217 19.119165
v -1.688017 -33.749401 19.816757
v -4.003364 -37.699913 20.675598
v 0.412660 -27.130093 23.386404
v 1.017031 -27.239780 23.794088
v 1.239625 -27.920023 23.389025
v 0.623445 -27.769339 22.975506
v 1.344386 -26.710852 23.111568
v -0.084851 -26.520037 23.748133
v 0.306941 -27.068939 23.382570
v -0.380382 -27.148291 22.936533
v -0.800272 -26.603189 23.305599
v 0.324023 -26.054749 23.066713
v 2.046422 -24.869236 12.302807
v 0.079069 -24.831985 12.289225
v -0.949153 -25.450691 11.057171
v 1.017248 -24.596401 5.956354
v 1.140703 -23.010862 5.484982
v 0.290587 -23.986488 5.534788
v 1.867364 -23.620775 5.906549
v 1.678219 -23.377926 3.994497
v -0.339753 -30.324583 12.918012
v -2.015212 -29.775160 29.018415
v -1.630348 -30.036970 29.036957
v -2.068906 -28.896929 28.415424
v -0.751994 -29.778917 28.473204
v -2.360369 -29.303370 28.749043
v -1.045110 -30.189444 28.810465
vn 0.0551 0.4386 0.8970
vn 0.3294 0.2621 0.9071
vn -0.0519 0.4536 0.8897
vn 0.3783 0.1892 0.9061
vn 0.1733 0.3085 0.9353
vn -0.0596 0.6430 0.7636
vn 0.5700 0.2358 0.7870
vn 0.2234 0.3477 0.9106
vn -0.0018 0.4146 0.9100
vn 0.3827 0.1326 0.9143
vn 0.2402 0.3905 0.8887
vn 0.1785 0.7484 0.6388
vn 0.5363 0.4861 0.6900
vn -0.1967 0.7242 0.6610
vn 0.6720 0.1075 0.7327
vn 0.3631 0.5687 0.7381
vn -0.0039 0.4686 0.8834
vn 0.3979 0.2400 0.8855
vn 0.1716 0.3109 0.9348
vn -0.3082 0.0707 -0.9487
vn 0.2865 -0.2352 -0.9288
vn 0.0211 0.6778 0.7349
vn 0.5479 0.2529 0.7974
vn -0.0208 -0.1307 -0.9912
vn -0.1203 -0.1028 0.9874
vn -0.4160 0.1912 0.8890
vn 0.2788 -0.2797 0.9187
vn 0.1231 0.9761 0.1791
vn 0.8566 0.4785 0.1932
vn -0.3772 0.7340 0.5648
vn 0.8166 -0.0353 0.5762
vn 0.5556 0.8315 0.0045
vn 0.3944 0.5596 0.7289
vn 0.3440 0.5872 0.7327
vn 0.4028 0.5595 0.7244
vn 0.3432 0.5957 0.7262
vn 0.2864 0.3678 0.8847
vn 0.2063 0.4350 0.8765
vn 0.3041 0.3812 0.8730
vn 0.2119 0.4514 0.8668
vn -0.2826 -0.3395 0.8972
vn -0.5970 0.0222 0.8020
vn 0.2154 -0.5111 0.8321
vn 0.0891 0.9936 -0.0699
vn 0.9059 0.4219 -0.0377
vn -0.5770 0.7137 0.3971
vn 0.9070 -0.1923 0.3747
vn 0.5675 0.8118 -0.1376
vn -0.4969 -0.1864 0.8476
vn 0.0129 -0.5158 0.8566
vn -0.4789 -0.6716 0.5654
vn 0.0517 0.8878 -0.4574
vn 0.8413 0.3456 -0.4156
vn -0.7527 0.5948 0.2822
vn 0.8941 -0.3867 0.2258
vn 0.4866 0.6788 -0.5500
vn -0.4894 -0.7569 0.4332
vn -0.4304 -0.9026 -0.0139
vn -0.7027 -0.6935 -0.1588
vn 0.0085 0.9822 0.1877
vn 0.8864 0.3812 0.2626
vn -0.9568 0.2116 -0.1995
vn 0.7763 -0.6261 -0.0728
vn 0.5097 0.7759 0.3716
vn -0.4680 -0.7537 0.4614
vn -0.8220 -0.4640 0.3301
vn -0.1581 -0.9149 0.3714
vn -0.3806 0.8740 0.3022
vn 0.9346 -0.0538 0.3516
vn -0.9063 0.3708 -0.2027
vn 0.7492 -0.6477 -0.1384
vn 0.3919 0.5150 0.7624
vn -0.8247 -0.4369 0.3592
vn -0.1252 -0.9026 0.4118
vn -0.4688 -0.7515 0.4642
vn -0.9128 0.3436 -0.2206
vn 0.6888 -0.7062 -0.1639
vn -0.7590 0.6411 -0.1134
vn 0.9432 -0.3323 0.0061
vn 0.5577 0.6909 -0.4600
vn -0.5005 -0.8256 0.2605
vn -0.8044 -0.5783 0.1361
vn -0.2483 -0.9512 0.1834
vn -0.9029 0.0481 -0.4271
vn 0.4372 -0.7927 -0.4248
vn -0.4796 -0.0660 -0.8750
vn 0.1734 -0.5835 -0.7934
vn -0.1231 -0.2582 -0.9582
vn -0.5046 -0.8543 0.1251
vn -0.5654 -0.7897 -0.2380
vn 0.0590 -0.0216 -0.9980
vn -0.3013 -0.4757 -0.8264
vn 0.1899 0.2469 -0.9502
vn 0.3889 -0.7574 -0.5245
vn -0.8277 0.0493 -0.5590
vn -0.9544 -0.2082 -0.2139
vn 0.0984 -0.9513 -0.2922
vn -0.7483 0.4178 0.5152
vn 0.6331 -0.5868 0.5048
vn 0.7990 0.1441 0.5838
vn -0.0678 0.7907 0.6085
vn -0.6043 0.6349 0.4814
vn 0.8071 -0.2236 0.5465
vn 0.4880 0.1361 0.8622
vn 0.0423 0.3854 0.9218
vn -0.4989 -0.7897 -0.3571
vn -0.8004 -0.4562 -0.3888
vn -0.9861 -0.0366 -0.1623
vn 0.3415 -0.9282 -0.1475
vn 0.4114 0.1944 0.8905
vn -0.0066 0.4658 0.8849
vn 0.0470 -0.2867 -0.9569
vn -0.2484 -0.0891 -0.9646
vn -0.4354 -0.0690 -0.8976
vn 0.1438 -0.4540 -0.8793
vn 0.0536 0.3461 0.9367
vn 0.2804 0.1894 0.9410
vn 0.3427 -0.9068 -0.2456
vn -0.2484 -0.7989 -0.5479
vn -0.7970 -0.4687 -0.3809
vn 0.9652 0.1317 0.2260
vn -0.9919 0.0265 0.1244
vn -0.1198 -0.6380 0.7607
vn -0.8275 0.5401 0.1534
vn -0.0104 0.9662 0.2575
vn 0.8800 0.4397 0.1797
vn -0.5217 0.7025 0.4840
vn 0.6701 0.4677 0.5764
vn 0.0771 0.7870 0.6121
vn 0.8702 -0.2647 -0.4156
vn 0.9491 0.3137 0.0280
vn -0.0123 0.9845 -0.1749
vn -0.7637 0.6430 -0.0584
vn -0.9588 -0.0948 -0.2678
vn 0.0434 0.5689 -0.8213
vn 0.9608 -0.0630 0.2699
vn 0.8976 -0.4358 -0.0660
vn -0.8294 -0.2846 0.4808
vn -0.5816 -0.6399 -0.5023
vn 0.5543 -0.5941 -0.5829
vn 0.0284 -0.9914 -0.1280
vn -0.3751 0.6760 -0.6343
vn 0.5232 0.6273 -0.5768
vn 0.7678 -0.0892 -0.6344
vn -0.4291 0.4703 -0.7712
vn -0.6241 0.3043 -0.7196
vn 0.1204 0.2276 -0.9663
vn -0.0023 -0.1753 -0.9845
vn -0.9486 -0.3156 -0.0250
vn -0.1026 0.2060 0.9732
vn -0.5932 -0.6017 0.5349
vn 0.1672 -0.3731 -0.9126
vn 0.7919 0.5137 -0.3300
vn -0.8111 0.1176 0.5729
vn -0.6773 0.2694 -0.6846
vn 0.6024 -0.4800 -0.6377
vn 0.4650 -0.6395 0.6122
vn 0.4370 -0.6290 -0.6429
vn -0.4051 -0.6482 -0.6448
vn 0.5684 0.8184 0.0846
vn -0.6070 0.7736 0.1821
vn 0.5365 0.8014 0.2645
vn 0.6629 -0.6752 -0.3234
vn -0.7016 0.7026 -0.1189
vn -0.3933 -0.7242 -0.5664
vn 0.9437 0.3189 0.0885
vn -0.4463 0.0485 0.8936
vn -0.8099 -0.5865 0.0128
vn 0.5555 -0.1847 -0.8108
vn 0.4123 -0.0181 0.9109
vn -0.9649 0.1626 0.2062
vn -0.5672 -0.1753 -0.8047
vn 0.8384 -0.5076 -0.1986
vn -0.4683 0.4094 -0.7830
vn -0.0906 0.8929 0.4411
vn 0.9633 0.1023 0.2482
vn 0.5792 -0.2124 -0.7870
vn -0.2240 0.9183 0.3266
vn 0.9236 0.2022 0.3256
vn 0.6569 -0.2479 -0.7120
vn -0.3551 0.3183 -0.8790
vn -0.2940 -0.7287 -0.6185
vn -0.6852 0.5098 -0.5202
vn 0.8028 -0.5703 -0.1741
vn 0.8280 0.5491 -0.1133
vn 0.4413 0.6687 0.5984
vn 0.4324 0.6777 0.5947
vn 0.4142 0.6867 0.5974
vn 0.2400 -0.5959 0.7664
vn 0.5335 0.3944 0.7482
vn -0.7522 0.0068 0.6589
vn 0.0772 0.6831 0.7262
vn 0.0856 0.3511 0.9324
vn 0.2482 0.2625 0.9325
vn -0.0299 0.6121 0.7902
vn 0.5150 0.2535 0.8189
vn -0.0974 0.5775 0.8106
vn 0.5149 0.1628 0.8417
vn 0.2058 0.3313 0.9208
vn 0.1830 0.3493 0.9190
vn -0.0558 0.4310 0.9006
vn 0.3627 0.1810 0.9142
vn 0.1908 0.3741 0.9076
vn 0.2438 0.3453 0.9062
vn 0.2095 0.3503 0.9129
vn 0.1553 0.5995 0.7852
vn 0.4522 0.3866 0.8038
vn -0.0269 0.8143 0.5798
vn 0.7120 0.3007 0.6346
vn -0.1544 0.6795 0.7172
vn 0.6438 0.1595 0.7484
vn -0.2229 0.5212 0.8238
vn 0.5142 0.0392 0.8568
vn 0.2955 0.4728 0.8302
vn 0.3536 0.5978 0.7195
vn 0.3817 0.5710 0.7268
vn 0.1553 0.2887 0.9448
vn 0.0821 0.3641 0.9277
vn 0.2645 0.2618 0.9282
vn -0.0199 0.4741 0.8802
vn 0.3883 0.2196 0.8950
vn 0.0093 0.6346 0.7728
vn 0.5231 0.2928 0.8004
vn 0.1599 0.6539 0.7395
vn 0.7178 0.3673 0.5915
vn -0.6277 0.7696 -0.1172
vn 0.9368 -0.3384 0.0890
vn -0.0409 0.5549 0.8309
vn 0.4693 0.2629 0.8430
vn -0.1444 -0.0827 -0.9861
vn 0.0634 -0.2038 -0.9770
vn 0.4472 0.8723 -0.1978
vn -0.1302 -0.1209 0.9841
vn -0.2757 0.0171 0.9611
vn 0.0531 -0.2010 0.9782
vn -0.4027 0.1920 0.8950
vn 0.2730 -0.2595 0.9263
vn -0.3053 0.7295 0.6121
vn 0.7722 0.0216 0.6350
vn -0.1135 0.9381 0.3272
vn 0.9065 0.2474 0.3420
vn 0.0429 0.9991 0.0006
vn 0.9203 0.3911 0.0044
vn -0.4769 0.4121 0.7763
vn 0.5272 -0.2559 0.8103
vn 0.3710 0.9270 0.0557
vn 0.7174 0.6944 0.0558
vn 0.3945 0.5424 -0.7417
vn 0.3793 0.6047 0.7003
vn 0.3986 0.5909 0.7014
vn 0.3970 0.5596 0.7275
vn 0.3435 0.5928 0.7284
vn 0.4071 0.5628 0.7194
vn 0.3430 0.5988 0.7237
vn 0.2918 0.3806 0.8775
vn 0.2169 0.4314 0.8757
vn 0.3009 0.3788 0.8752
vn 0.2092 0.4434 0.8716
vn 0.1829 0.3667 0.9122
vn 0.2317 0.3564 0.9052
vn -0.4795 0.1450 0.8655
vn 0.2698 -0.3552 0.8950
vn -0.4447 -0.1964 0.8739
vn -0.0759 -0.4388 0.8954
vn -0.1599 -0.1589 0.9743
vn 0.1160 0.9845 0.1315
vn 0.8735 0.4638 0.1481
vn -0.2196 0.9724 0.0784
vn 0.9842 0.1431 0.1046
vn -0.4612 0.7320 0.5015
vn 0.8598 -0.1037 0.5000
vn -0.6819 0.2996 0.6672
vn 0.5307 -0.4834 0.6962
vn 0.5593 0.8231 0.0987
vn 0.3781 0.9169 -0.1282
vn 0.7454 0.6573 -0.1112
vn -0.6698 -0.0815 0.7381
vn 0.1436 -0.6427 0.7525
vn -0.5221 -0.5391 0.6609
vn -0.3820 -0.6706 0.6358
vn -0.4123 -0.5435 0.7312
vn 0.0632 0.9406 -0.3335
vn 0.8875 0.3686 -0.2766
vn -0.2887 0.9294 -0.2300
vn 0.9853 0.0579 -0.1609
vn -0.6786 0.6767 0.2857
vn 0.9322 -0.2791 0.2304
vn -0.7637 0.2421 0.5985
vn 0.4163 -0.6926 0.5890
vn 0.5235 0.7359 -0.4294
vn 0.3263 0.7773 -0.5378
vn 0.6421 0.5606 -0.5229
vn -0.1963 -0.7985 0.5691
vn -0.8167 -0.4133 0.4027
vn -0.5206 -0.7651 0.3789
vn -0.4961 -0.7928 0.3540
vn -0.4961 -0.7344 0.4631
vn 0.0289 0.9723 -0.2319
vn 0.9012 0.3969 -0.1738
vn -0.4041 0.9039 -0.1404
vn 0.9998 -0.0119 -0.0166
vn -0.7647 0.6427 -0.0472
vn 0.9560 -0.2922 -0.0249
vn -0.8517 -0.4568 -0.2567
vn -0.1131 -0.9550 -0.2740
vn 0.5505 0.8092 -0.2053
vn 0.3075 0.8910 0.3340
vn 0.6899 0.6249 0.3655
vn -0.8098 -0.5101 0.2898
vn -0.2076 -0.9323 0.2961
vn -0.5949 -0.6724 0.4405
vn -0.3725 -0.8151 0.4438
vn -0.4760 -0.7563 0.4488
vn -0.0944 0.9107 0.4020
vn 0.8519 0.2391 0.4658
vn -0.5978 0.7979 -0.0780
vn 0.9728 -0.2227 0.0643
vn -0.9173 0.3523 -0.1853
vn 0.8106 -0.5779 -0.0945
vn -0.9937 -0.1021 0.0455
vn 0.2430 -0.9610 0.1322
vn 0.4128 0.6370 0.6510
vn 0.1680 0.6312 0.7572
vn 0.4632 0.4240 0.7783
vn -0.8258 -0.4505 0.3394
vn -0.1342 -0.9074 0.3982
vn -0.6050 -0.6607 0.4443
vn -0.3553 -0.8150 0.4577
vn -0.4663 -0.7520 0.4660
vn -0.6683 0.7020 -0.2462
vn 0.9231 -0.3669 -0.1155
vn -0.7449 0.4780 -0.4654
vn 0.7797 -0.5274 -0.3375
vn -0.9066 0.3584 -0.2228
vn 0.7050 -0.6906 -0.1612
vn -0.9907 -0.0270 0.1336
vn 0.3151 -0.9211 0.2286
vn 0.8166 0.4123 -0.4039
vn -0.0772 0.8816 -0.4657
vn 0.7079 0.6560 -0.2618
vn -0.8275 -0.4747 0.2998
vn -0.1676 -0.9244 0.3426
vn -0.6144 -0.7525 0.2372
vn -0.4208 -0.8730 0.2466
vn -0.4845 -0.7800 0.3960
vn -0.8610 0.2418 -0.4474
vn 0.7093 -0.6600 -0.2475
vn -0.5658 0.2000 -0.7999
vn 0.4436 -0.5130 -0.7349
vn -0.9347 0.2363 -0.2654
vn 0.6105 -0.7535 -0.2440
vn -0.9611 -0.2589 -0.0965
vn 0.0632 -0.9978 -0.0193
vn -0.1423 -0.2814 -0.9490
vn -0.1170 -0.2483 -0.9616
vn -0.7499 -0.6525 -0.1089
vn -0.2908 -0.9550 -0.0574
vn -0.5381 -0.8428 0.0102
vn -0.5044 -0.8486 0.1593
vn -0.1789 0.1112 -0.9776
vn 0.1775 -0.1462 -0.9732
vn -0.0954 -0.2112 -0.9728
vn -0.7298 -0.1265 -0.6719
vn 0.1862 -0.7590 -0.6239
vn -0.4801 -0.6940 -0.5366
vn 0.1207 0.1324 -0.9838
vn 0.1597 0.1580 -0.9744
vn 0.2843 -0.7813 -0.5556
vn -0.8380 -0.0310 -0.5448
vn -0.3045 -0.6814 -0.6656
vn -0.5401 -0.4510 -0.7106
vn -0.9791 -0.1479 -0.1398
vn 0.1331 -0.9831 -0.1256
vn -0.9502 0.1390 0.2790
vn 0.4532 -0.8124 0.3669
vn -0.8524 0.2721 0.4465
vn 0.4809 -0.7467 0.4595
vn 0.2407 0.1405 0.9604
vn 0.0529 0.2242 0.9731
vn 0.8972 -0.4373 0.0615
vn -0.8283 0.5489 -0.1123
vn -0.1490 0.6263 0.7652
vn 0.6428 0.0719 0.7627
vn -0.5994 0.6267 0.4980
vn 0.8002 -0.2708 0.5351
vn -0.4041 0.6251 0.6678
vn 0.7125 -0.0576 0.6994
vn 0.7678 0.1227 0.6289
vn -0.1107 0.7639 0.6357
vn -0.5401 -0.5840 0.6060
vn -0.9260 -0.1901 0.3263
vn 0.1055 -0.8665 -0.4879
vn -0.8533 -0.1533 -0.4983
vn -0.9753 -0.1010 -0.1964
vn 0.2631 -0.9428 -0.2049
vn -0.9397 0.3106 0.1434
vn 0.6961 -0.6754 0.2434
vn -0.9425 -0.2341 -0.2385
vn 0.0001 -0.9486 -0.3166
vn 0.0372 -0.2744 -0.9609
vn -0.2381 -0.0841 -0.9676
vn 0.9988 -0.0197 -0.0450
vn -0.3615 0.8986 -0.2489
vn 0.3547 0.2321 0.9057
vn 0.0366 0.4461 0.8942
vn -0.4208 -0.0818 -0.9035
vn 0.0841 -0.4228 -0.9023
vn -0.1751 -0.1738 -0.9691
vn -0.0780 -0.2232 -0.9717
vn 0.0380 0.3508 0.9357
vn 0.2709 0.1976 0.9421
vn -0.6810 0.7214 -0.1258
vn 0.9595 -0.2745 0.0636
vn 0.2455 0.2894 0.9252
vn 0.1418 0.3612 0.9216
vn -0.3094 -0.6494 -0.6947
vn -0.1065 -0.8419 -0.5290
vn 0.3492 -0.8910 -0.2901
vn -0.8122 -0.3055 -0.4970
vn -0.3795 -0.7754 -0.5047
vn 0.6318 -0.6460 0.4284
vn 0.8565 -0.1629 0.4898
vn -0.9371 0.3187 0.1424
vn -0.9471 -0.3054 -0.0985
vn 0.2154 -0.2070 0.9543
vn -0.4746 -0.4511 0.7558
vn -0.1718 -0.9707 -0.1678
vn -0.9655 0.2286 0.1245
vn -0.4761 0.8542 0.2089
vn 0.5066 0.8309 0.2303
vn 0.9773 0.1300 0.1673
vn -0.5698 0.6960 0.4369
vn -0.6952 0.6264 0.3527
vn 0.7784 0.4715 0.4145
vn 0.7717 0.2377 0.5899
vn 0.3696 0.6730 0.6406
vn 0.2070 0.7557 0.6213
vn -0.2015 0.8014 0.5632
vn 0.0119 0.8854 0.4648
vn 0.9864 -0.1288 -0.1019
vn 0.9864 -0.1075 -0.1244
vn 0.9243 0.3811 0.0209
vn 0.6185 0.7858 -0.0004
vn -0.0358 0.9992 0.0193
vn -0.4778 0.8343 -0.2751
vn -0.8655 0.4992 -0.0416
vn -0.9895 0.0584 -0.1324
vn -0.9954 -0.0961 -0.0041
vn 0.1165 0.3752 -0.9196
vn -0.3069 0.3793 -0.8729
vn 0.9757 -0.1902 -0.1090
vn -0.2433 -0.5749 0.7813
vn 0.6585 0.3284 -0.6771
vn -0.2151 -0.6540 0.7253
vn -0.9813 -0.1595 0.1079
vn -0.6622 -0.7185 0.2130
vn -0.9441 -0.1895 -0.2699
vn 0.9102 -0.0475 -0.4115
vn 0.6808 -0.7277 0.0838
vn -0.0095 -0.8854 -0.4647
vn -0.2427 -0.6456 0.7241
vn -0.1250 -0.9213 -0.3683
vn -0.2056 -0.9359 0.2860
vn 0.6121 0.6544 -0.4439
vn 0.1234 0.7714 -0.6242
vn -0.8276 0.4593 -0.3225
vn 0.9065 -0.2592 -0.3333
vn 0.6828 0.3033 -0.6647
vn -0.9240 0.3477 -0.1594
vn 0.1916 0.3052 -0.9328
vn -0.4529 0.5070 -0.7334
vn 0.6884 0.2751 -0.6711
vn -0.3576 0.3963 -0.8456
vn -0.5607 0.5993 -0.5714
vn 0.5795 0.1297 -0.8046
vn 0.0574 -0.0464 -0.9973
vn -0.8018 0.5915 0.0845
vn -0.4297 -0.3980 -0.8106
vn -0.5696 -0.0312 -0.8213
vn -0.7705 -0.5916 0.2375
vn -0.3091 -0.2977 0.9032
vn -0.3189 -0.0315 0.9473
vn -0.0038 -0.3053 -0.9523
vn -0.3556 -0.9288 -0.1038
vn 0.7540 0.5899 -0.2888
vn 0.8232 0.0234 -0.5672
vn 0.7147 0.4596 0.5273
vn -0.5080 0.4334 -0.7444
vn -0.9986 0.0281 -0.0443
vn -0.8290 0.1775 0.5303
vn 0.7102 -0.3282 -0.6228
vn 0.0363 -0.2971 -0.9542
vn 0.5610 -0.6675 0.4896
vn 0.5924 -0.8035 -0.0582
vn -0.1771 -0.5372 0.8246
vn -0.0775 -0.4840 -0.8716
vn -0.5565 -0.5299 -0.6399
vn 0.0363 -0.7473 -0.6635
vn 0.5112 -0.5689 -0.6442
vn 0.9189 0.3944 0.0072
vn -0.1292 0.9160 0.3798
vn -0.7106 0.6877 0.1488
vn -0.9544 0.1093 -0.2778
vn 0.9576 0.0560 -0.2827
vn 0.5260 -0.6691 -0.5250
vn 0.9957 0.0707 -0.0594
vn 0.4760 0.8073 0.3489
vn -0.6323 0.7721 0.0637
vn -0.8659 0.0604 -0.4966
vn -0.3949 -0.6996 -0.5954
vn -0.1693 0.9531 0.2508
vn 0.2177 -0.8953 -0.3887
vn -0.4075 0.0421 0.9123
vn 0.3227 0.2103 0.9228
vn 0.8825 0.4558 0.1161
vn -0.7378 -0.6733 -0.0487
vn -0.6725 -0.3334 0.6608
vn 0.4770 -0.2501 -0.8426
vn -0.3136 -0.8744 -0.3702
vn 0.9894 0.0400 -0.1396
vn -0.9557 0.2274 0.1869
vn -0.3067 0.0288 0.9514
vn 0.2574 0.0332 0.9657
vn -0.4570 -0.2337 -0.8582
vn -0.9932 -0.0873 -0.0769
vn 0.7772 -0.5721 -0.2618
vn 0.3298 -0.7605 -0.5594
vn 0.7475 -0.4169 0.5171
vn -0.3320 0.7642 0.5530
vn -0.4320 0.8321 -0.3478
vn -0.4985 0.4582 -0.7359
vn 0.8837 -0.1159 0.4534
vn 0.6951 0.6164 0.3700
vn 0.6107 -0.3463 -0.7121
vn 0.9693 -0.0419 -0.2423
vn 0.0628 0.1666 -0.9840
vn 0.8368 -0.0356 0.5463
vn 0.5137 0.7637 0.3909
vn -0.4293 0.7993 0.4204
vn 0.6430 -0.3658 -0.6729
vn 0.9865 -0.0079 -0.1635
vn -0.4509 0.3807 -0.8073
vn 0.1735 0.0830 -0.9813
vn -0.4099 0.7830 -0.4679
vn 0.1159 0.9582 -0.2614
vn -0.2999 0.9468 -0.1170
vn -0.3651 -0.7275 -0.5809
vn 0.3433 -0.8184 -0.4608
vn 0.7635 -0.6222 -0.1730
vn 0.7027 0.6988 0.1336
vn 0.1329 0.7577 -0.6389
vn -0.7504 0.5824 -0.3127
vn -0.6168 -0.2213 -0.7554
vn 0.9816 -0.0603 -0.1810
vn 0.4348 0.6760 0.5950
vn 0.4424 0.6674 0.5990
vn 0.4122 0.6875 0.5979
vn 0.4279 0.6806 0.5948
vn 0.5380 0.1857 0.8222
vn 0.4586 -0.2405 0.8555
vn -0.5246 0.3590 0.7720
vn -0.1446 0.6066 0.7818
vn 0.4778 0.6062 0.6359
vn 0.3562 0.7003 0.6187
vn 0.1278 0.3659 0.9219
vn 0.2538 0.2984 0.9201
vn -0.0443 0.7135 0.6993
vn 0.6200 0.2701 0.7366
vn -0.1907 0.5522 0.8116
vn 0.5217 0.0735 0.8499
vn 0.2736 0.4873 0.8293
vn 0.3092 0.4652 0.8295
vn 0.0687 0.3484 0.9348
vn 0.2462 0.2503 0.9363
vn -0.2627 0.9400 0.2176
vn 0.7419 0.2131 0.6357
vn -0.0093 0.5875 0.8092
vn 0.4933 0.2531 0.8322
vn -0.2778 -0.0046 0.9606
vn 0.0347 -0.2068 0.9778
vn -0.1008 0.9285 0.3574
vn 0.8961 0.2610 0.3590
vn -0.4212 0.4314 0.7978
vn 0.5197 -0.1884 0.8333
vn 0.1820 0.7424 -0.6447
vn 0.6108 0.4524 -0.6498
vn 0.3911 0.5863 0.7094
vn 0.3560 0.5942 0.7213
vn 0.2700 0.3739 0.8873
vn 0.2190 0.4119 0.8845
vn -0.3246 -0.0317 0.9453
vn 0.0305 -0.2660 0.9635
vn -0.1598 0.9577 0.2392
vn 0.9440 0.2047 0.2589
vn -0.5606 0.3773 0.7371
vn 0.5354 -0.3488 0.7692
vn 0.3799 0.9193 0.1024
vn 0.7229 0.6826 0.1073
vn -0.5331 -0.3832 0.7543
vn -0.2198 -0.5938 0.7740
vn -0.2754 0.9526 -0.1296
vn 0.9945 0.0746 -0.0738
vn -0.7638 0.2440 0.5976
vn 0.5061 -0.6104 0.6093
vn 0.3498 0.8391 -0.4165
vn 0.6980 0.5992 -0.3921
vn -0.4906 -0.7020 0.5162
vn -0.5052 -0.7378 0.4477
vn -0.3019 0.9310 -0.2052
vn 0.9876 0.0656 -0.1426
vn 0.3376 0.9154 -0.2192
vn 0.7227 0.6655 -0.1866
vn -0.5760 -0.7066 0.4109
vn -0.4135 -0.8162 0.4036
vn -0.4866 0.8736 0.0021
vn 0.9869 -0.1035 0.1240
vn -0.9827 -0.1851 -0.0065
vn 0.1753 -0.9835 0.0448
vn 0.2189 0.7647 0.6061
vn 0.5815 0.5055 0.6374
vn -0.6005 -0.6667 0.4415
vn -0.3588 -0.8140 0.4568
vn -0.7050 0.6363 -0.3132
vn 0.8796 -0.4286 -0.2063
vn -0.9950 -0.0557 0.0834
vn 0.2942 -0.9380 0.1831
vn -0.6153 -0.6902 0.3808
vn -0.3818 -0.8390 0.3877
vn -0.7058 0.3011 -0.6412
vn 0.6162 -0.5808 -0.5319
vn -0.9931 -0.0916 0.0731
vn 0.2406 -0.9565 0.1648
vn -0.6165 -0.7831 0.0815
vn -0.4232 -0.9002 0.1030
vn -0.4117 0.0628 -0.9092
vn 0.2896 -0.4204 -0.8599
vn -0.8367 -0.4373 -0.3295
vn -0.1137 -0.9481 -0.2968
vn 0.1060 0.1085 -0.9884
vn 0.1194 0.0886 -0.9889
vn -0.3048 -0.6897 -0.6569
vn -0.4993 -0.5609 -0.6604
vn -0.9601 0.2359 0.1505
vn 0.5576 -0.7829 0.2761
vn 0.8177 -0.5605 0.1314
vn -0.8715 0.4887 -0.0397
vn -0.5861 0.3656 0.7231
vn 0.4975 -0.5094 0.7022
vn 0.0175 0.6866 0.7269
vn 0.6208 0.2841 0.7307
vn 0.8137 -0.5613 0.1509
vn -0.9231 0.3792 -0.0645
vn -0.9375 0.2966 0.1819
vn 0.6583 -0.7067 0.2591
vn -0.6223 -0.5800 -0.5257
vn -0.3908 -0.7222 -0.5707
vn -0.9797 0.0145 0.2001
vn 0.4655 -0.7661 0.4431
vn 0.9901 -0.1404 -0.0046
vn -0.4841 0.8530 -0.1952
vn -0.1843 -0.2210 -0.9577
vn -0.0889 -0.2874 -0.9537
vn -0.8500 0.5233 -0.0616
vn 0.8103 -0.5537 0.1918
vn 0.2104 0.2702 0.9395
vn 0.1285 0.3222 0.9379
vn 0.7702 0.6086 -0.1906
vn 0.9242 0.3575 -0.1344
vn -0.2058 -0.7105 -0.6729
vn -0.3925 -0.6318 -0.6684
vn 0.7635 -0.6015 0.2350
vn -0.9843 0.1360 -0.1124
vn -0.0095 -0.9909 -0.1342
vn -0.3763 -0.9116 -0.1653
vn -0.8745 0.4034 0.2694
vn 0.8753 0.1935 0.4432
vn 0.4993 0.5385 0.6788
vn -0.1127 0.8207 0.5602
vn -0.3281 0.8448 0.4228
vn 0.3895 0.7981 0.4598
vn 0.9996 0.0205 -0.0213
vn 0.5802 0.8134 0.0423
vn -0.5525 0.8325 -0.0417
vn -0.9904 0.1378 -0.0069
vn -0.9447 -0.3272 0.0226
vn 0.9416 -0.2965 -0.1599
vn -0.1362 -0.9423 0.3059
vn -0.2495 -0.9262 0.2826
vn 0.1558 0.8714 -0.4651
vn 0.8528 0.2089 -0.4787
vn -0.9807 0.1376 -0.1391
vn 0.1482 0.5103 -0.8471
vn -0.2272 0.7392 -0.6341
vn 0.8506 -0.0246 -0.5252
vn 0.0071 0.3491 -0.9371
vn -0.2979 -0.0478 -0.9534
vn -0.2107 0.0998 0.9724
vn -0.5175 -0.7104 -0.4769
vn 0.4408 0.1476 -0.8854
vn 0.1927 0.2938 0.9362
vn 0.9454 -0.2655 0.1891
vn -0.8837 0.4635 -0.0654
vn 0.1515 0.1056 -0.9828
vn 0.8321 -0.5439 -0.1089
vn -0.1716 -0.3560 0.9186
vn -0.7677 -0.6349 -0.0872
vn -0.0275 -0.6350 -0.7720
vn -0.9742 0.0667 -0.2156
vn 0.9677 -0.0998 -0.2314
vn 0.9801 0.1131 -0.1631
vn -0.9084 0.1155 -0.4018
vn -0.1278 0.9017 0.4131
vn 0.1208 -0.8527 -0.5082
vn 0.0580 0.4043 0.9128
vn -0.7146 -0.3845 0.5843
vn -0.1931 -0.6114 -0.7674
vn 0.8093 0.0833 -0.5814
vn 0.8062 -0.5283 0.2663
vn -0.1914 0.2585 0.9469
vn -0.8764 0.0065 -0.4815
vn 0.1768 -0.4381 -0.8814
vn 0.7385 -0.4333 0.5167
vn -0.6793 -0.6984 0.2255
vn -0.6844 0.7079 -0.1748
vn 0.3589 0.3682 0.8577
vn 0.9203 -0.3713 -0.1232
vn -0.0379 -0.0018 -0.9993
vn 0.6306 0.5984 -0.4943
vn 0.1675 0.5042 0.8472
vn 0.9320 -0.3564 -0.0666
vn 0.0682 -0.0822 -0.9943
vn -0.6776 0.6924 -0.2478
vn 0.6232 0.5890 -0.5144
vn 0.6849 0.7285 -0.0152
vn -0.3151 0.8603 -0.4008
vn -0.2423 0.9398 0.2409
vn 0.3059 -0.8901 -0.3377
vn -0.1776 0.9834 0.0370
vn -0.8284 -0.0268 -0.5595
vn 0.9999 0.0087 0.0134
vn 0.6050 -0.1616 -0.7797
vn -0.1402 -0.0115 -0.9901
vn 0.4348 0.6759 0.5950
vn 0.4277 0.6807 0.5948
vn 0.3758 -0.3975 0.8371
vn -0.6471 0.1975 0.7363
vn 0.4861 0.5890 0.6456
vn 0.3167 0.7059 0.6336
s 1
usemtl Material.001
f 5//5 205//205 568//565 193//193
f 205//205 11//11 203//203 568//565
f 568//565 203//203 9//9 201//201
f 193//193 568//565 201//201 3//3
f 10//10 204//204 569//566 202//202
f 204//204 11//11 205//205 569//566
f 569//566 205//205 5//5 194//194
f 202//202 569//566 194//194 4//4
f 12//12 206//206 570//567 208//208
f 206//206 1//1 195//195 570//567
f 570//567 195//195 6//6 210//210
f 208//208 570//567 210//210 14//14
f 7//7 196//196 571//568 211//211
f 196//196 2//2 207//207 571//568
f 571//568 207//207 13//13 209//209
f 211//211 571//568 209//209 15//15
f 6//6 197//197 572//569 210//210
f 197//197 3//3 201//201 572//569
f 572//569 201//201 9//9 212//212
f 210//210 572//569 212//212 14//14
f 10//10 202//202 573//570 213//213
f 202//202 4//4 198//198 573//570
f 573//570 198//198 7//7 211//211
f 213//213 573//570 211//211 15//15
f 1//1 206//206 574//571 199//199
f 206//206 12//12 215//215 574//571
f 574//571 215//215 16//16 214//214
f 199//199 574//571 214//214 8//8
f 16//16 216//216 575//572 214//214
f 216//216 13//13 207//207 575//572
f 575//572 207//207 2//2 200//200
f 214//214 575//572 200//200 8//8
f 3//3 220//220 576//573 193//193
f 220//220 17//17 218//218 576//573
f 576//573 218//218 19//19 217//217
f 193//193 576//573 217//217 5//5
f 19//19 219//219 577//574 217//217
f 219//219 18//18 221//221 577//574
f 577//574 221//221 4//4 194//194
f 217//217 577//574 194//194 5//5
f 1//1 226//226 578//575 195//195
f 226//226 20//20 224//224 578//575
f 578//575 224//224 22//22 222//222
f 195//195 578//575 222//222 6//6
f 23//23 225//225 579//576 223//223
f 225//225 21//21 227//227 579//576
f 579//576 227//227 2//2 196//196
f 223//223 579//576 196//196 7//7
f 6//6 222//222 580//577 197//197
f 222//222 22//22 228//228 580//577
f 580//577 228//228 17//17 220//220
f 197//197 580//577 220//220 3//3
f 18//18 229//229 581//578 221//221
f 229//229 23//23 223//223 581//578
f 581//578 223//223 7//7 198//198
f 221//221 581//578 198//198 4//4
f 17//17 236//236 582//579 218//218
f 236//236 26//26 234//234 582//579
f 582//579 234//234 25//25 233//233
f 218//218 582//579 233//233 19//19
f 25//25 235//235 583//580 233//233
f 235//235 27//27 237//237 583//580
f 583//580 237//237 18//18 219//219
f 233//233 583//580 219//219 19//19
f 20//20 242//242 584//581 224//224
f 242//242 28//28 240//240 584//581
f 584//581 240//240 30//30 238//238
f 224//224 584//581 238//238 22//22
f 31//31 241//241 585//582 239//239
f 241//241 29//29 243//243 585//582
f 585//582 243//243 21//21 225//225
f 239//239 585//582 225//225 23//23
f 22//22 238//238 586//583 228//228
f 238//238 30//30 244//244 586//583
f 586//583 244//244 26//26 236//236
f 228//228 586//583 236//236 17//17
f 27//27 245//245 587//584 237//237
f 245//245 31//31 239//239 587//584
f 587//584 239//239 23//23 229//229
f 237//237 587//584 229//229 18//18
f 24//24 248//248 588//585 230//230
f 248//248 32//32 246//246 588//585
f 588//585 246//246 28//28 242//242
f 230//230 588//585 242//242 20//20
f 29//29 247//247 589//586 243//243
f 247//247 32//32 248//248 589//586
f 589//586 248//248 24//24 231//231
f 243//243 589//586 231//231 21//21
f 16//16 215//215 590//587 253//253
f 215//215 12//12 249//249 590//587
f 590//587 249//249 33//33 251//251
f 253//253 590//587 251//251 35//35
f 34//34 250//250 591//588 252//252
f 250//250 13//13 216//216 591//588
f 591//588 216//216 16//16 254//254
f 252//252 591//588 254//254 36//36
f 9//9 203//203 592//589 259//259
f 203//203 11//11 255//255 592//589
f 592//589 255//255 39//39 257//257
f 259//259 592//589 257//257 37//37
f 40//40 256//256 593//590 258//258
f 256//256 11//11 204//204 593//590
f 593//590 204//204 10//10 260//260
f 258//258 593//590 260//260 38//38
f 25//25 234//234 594//591 265//265
f 234//234 26//26 261//261 594//591
f 594//591 261//261 42//42 263//263
f 265//265 594//591 263//263 41//41
f 43//43 262//262 595//592 264//264
f 262//262 27//27 235//235 595//592
f 595//592 235//235 25//25 265//265
f 264//264 595//592 265//265 41//41
f 30//30 240//240 596//593 270//270
f 240//240 28//28 266//266 596//593
f 596//593 266//266 44//44 268//268
f 270//270 596//593 268//268 46//46
f 45//45 267//267 597//594 269//269
f 267//267 29//29 241//241 597//594
f 597//594 241//241 31//31 271//271
f 269//269 597//594 271//271 47//47
f 26//26 244//244 598//595 261//261
f 244//244 30//30 270//270 598//595
f 598//595 270//270 46//46 272//272
f 261//261 598//595 272//272 42//42
f 47//47 271//271 599//596 273//273
f 271//271 31//31 245//245 599//596
f 599//596 245//245 27//27 262//262
f 273//273 599//596 262//262 43//43
f 28//28 246//246 600//597 266//266
f 246//246 32//32 274//274 600//597
f 600//597 274//274 48//48 275//275
f 266//266 600//597 275//275 44//44
f 48//48 274//274 601//598 276//276
f 274//274 32//32 247//247 601//598
f 601//598 247//247 29//29 267//267
f 276//276 601//598 267//267 45//45
f 41//41 263//263 602//599 281//281
f 263//263 42//42 277//277 602//599
f 602//599 277//277 49//49 279//279
f 281//281 602//599 279//279 51//51
f 50//50 278//278 603//600 280//280
f 278//278 43//43 264//264 603//600
f 603//600 264//264 41//41 281//281
f 280//280 603//600 281//281 51//51
f 46//46 268//268 604//601 286//286
f 268//268 44//44 282//282 604//601
f 604//601 282//282 52//52 284//284
f 286//286 604//601 284//284 54//54
f 53//53 283//283 605//602 285//285
f 283//283 45//45 269//269 605//602
f 605//602 269//269 47//47 287//287
f 285//285 605//602 287//287 55//55
f 42//42 272//272 606//603 277//277
f 272//272 46//46 286//286 606//603
f 606//603 286//286 54//54 288//288
f 277//277 606//603 288//288 49//49
f 55//55 287//287 607//604 289//289
f 287//287 47//47 273//273 607//604
f 607//604 273//273 43//43 278//278
f 289//289 607//604 278//278 50//50
f 44//44 275//275 608//605 282//282
f 275//275 48//48 290//290 608//605
f 608//605 290//290 56//56 291//291
f 282//282 608//605 291//291 52//52
f 56//56 290//290 609//606 292//292
f 290//290 48//48 276//276 609//606
f 609//606 276//276 45//45 283//283
f 292//292 609//606 283//283 53//53
f 51//51 279//279 610//607 297//297
f 279//279 49//49 293//293 610//607
f 610//607 293//293 58//58 295//295
f 297//297 610//607 295//295 57//57
f 59//59 294//294 611//608 296//296
f 294//294 50//50 280//280 611//608
f 611//608 280//280 51//51 297//297
f 296//296 611//608 297//297 57//57
f 54//54 284//284 612//609 302//302
f 284//284 52//52 298//298 612//609
f 612//609 298//298 60//60 300//300
f 302//302 612//609 300//300 62//62
f 61//61 299//299 613//610 301//301
f 299//299 53//53 285//285 613//610
f 613//610 285//285 55//55 303//303
f 301//301 613//610 303//303 63//63
f 52//52 291//291 614//611 298//298
f 291//291 56//56 306//306 614//611
f 614//611 306//306 64//64 307//307
f 298//298 614//611 307//307 60//60
f 64//64 306//306 615//612 308//308
f 306//306 56//56 292//292 615//612
f 615//612 292//292 53//53 299//299
f 308//308 615//612 299//299 61//61
f 57//57 295//295 616//613 313//313
f 295//295 58//58 309//309 616//613
f 616//613 309//309 66//66 311//311
f 313//313 616//613 311//311 65//65
f 67//67 310//310 617//614 312//312
f 310//310 59//59 296//296 617//614
f 617//614 296//296 57//57 313//313
f 312//312 617//614 313//313 65//65
f 62//62 300//300 618//615 318//318
f 300//300 60//60 314//314 618//615
f 618//615 314//314 68//68 316//316
f 318//318 618//615 316//316 70//70
f 69//69 315//315 619//616 317//317
f 315//315 61//61 301//301 619//616
f 619//616 301//301 63//63 319//319
f 317//317 619//616 319//319 71//71
f 58//58 304//304 620//617 309//309
f 304//304 62//62 318//318 620//617
f 620//617 318//318 70//70 320//320
f 309//309 620//617 320//320 66//66
f 71//71 319//319 621//618 321//321
f 319//319 63//63 305//305 621//618
f 621//618 305//305 59//59 310//310
f 321//321 621//618 310//310 67//67
f 60//60 307//307 622//619 314//314
f 307//307 64//64 322//322 622//619
f 622//619 322//322 72//72 323//323
f 314//314 622//619 323//323 68//68
f 72//72 322//322 623//620 324//324
f 322//322 64//64 308//308 623//620
f 623//620 308//308 61//61 315//315
f 324//324 623//620 315//315 69//69
f 65//65 311//311 624//621 329//329
f 311//311 66//66 325//325 624//621
f 624//621 325//325 73//73 327//327
f 329//329 624//621 327//327 75//75
f 74//74 326//326 625//622 328//328
f 326//326 67//67 312//312 625//622
f 625//622 312//312 65//65 329//329
f 328//328 625//622 329//329 75//75
f 70//70 316//316 626//623 334//334
f 316//316 68//68 330//330 626//623
f 626//623 330//330 78//78 332//332
f 334//334 626//623 332//332 76//76
f 79//79 331//331 627//624 333//333
f 331//331 69//69 317//317 627//624
f 627//624 317//317 71//71 335//335
f 333//333 627//624 335//335 77//77
f 66//66 320//320 628//625 325//325
f 320//320 70//70 334//334 628//625
f 628//625 334//334 76//76 336//336
f 325//325 628//625 336//336 73//73
f 77//77 335//335 629//626 337//337
f 335//335 71//71 321//321 629//626
f 629//626 321//321 67//67 326//326
f 337//337 629//626 326//326 74//74
f 75//75 327//327 630//627 345//345
f 327//327 73//73 341//341 630//627
f 630//627 341//341 82//82 343//343
f 345//345 630//627 343//343 81//81
f 83//83 342//342 631//628 344//344
f 342//342 74//74 328//328 631//628
f 631//628 328//328 75//75 345//345
f 344//344 631//628 345//345 81//81
f 76//76 332//332 632//629 350//350
f 332//332 78//78 346//346 632//629
f 632//629 346//346 86//86 348//348
f 350//350 632//629 348//348 84//84
f 87//87 347//347 633//630 349//349
f 347//347 79//79 333//333 633//630
f 633//630 333//333 77//77 351//351
f 349//349 633//630 351//351 85//85
f 73//73 336//336 634//631 341//341
f 336//336 76//76 350//350 634//631
f 634//631 350//350 84//84 352//352
f 341//341 634//631 352//352 82//82
f 85//85 351//351 635//632 353//353
f 351//351 77//77 337//337 635//632
f 635//632 337//337 74//74 342//342
f 353//353 635//632 342//342 83//83
f 81//81 343//343 636//633 359//359
f 343//343 82//82 356//356 636//633
f 636//633 356//356 90//90 358//358
f 359//359 636//633 358//358 89//89
f 90//90 357//357 637//634 358//358
f 357//357 83//83 344//344 637//634
f 637//634 344//344 81//81 359//359
f 358//358 637//634 359//359 89//89
f 84//84 348//348 638//635 363//363
f 348//348 86//86 360//360 638//635
f 638//635 360//360 91//91 362//362
f 363//363 638//635 362//362 92//92
f 91//91 361//361 639//636 362//362
f 361//361 87//87 349//349 639//636
f 639//636 349//349 85//85 364//364
f 362//362 639//636 364//364 92//92
f 82//82 352//352 640//637 356//356
f 352//352 84//84 363//363 640//637
f 640//637 363//363 92//92 365//365
f 356//356 640//637 365//365 90//90
f 92//92 364//364 641//638 365//365
f 364//364 85//85 353//353 641//638
f 641//638 353//353 83//83 357//357
f 365//365 641//638 357//357 90//90
f 86//86 354//354 642//639 360//360
f 354//354 88//88 366//366 642//639
f 642//639 366//366 93//93 367//367
f 360//360 642//639 367//367 91//91
f 93//93 366//366 643//640 367//367
f 366//366 88//88 355//355 643//640
f 643//640 355//355 87//87 361//361
f 367//367 643//640 361//361 91//91
f 62//62 304//304 644//641 372//372
f 304//304 58//58 368//368 644//641
f 644//641 368//368 94//94 370//370
f 372//372 644//641 370//370 96//96
f 95//95 369//369 645//642 371//371
f 369//369 59//59 305//305 645//642
f 645//642 305//305 63//63 373//373
f 371//371 645//642 373//373 97//97
f 54//54 302//302 646//643 376//376
f 302//302 62//62 372//372 646//643
f 646//643 372//372 96//96 374//374
f 376//376 646//643 374//374 98//98
f 97//97 373//373 647//644 375//375
f 373//373 63//63 303//303 647//644
f 647//644 303//303 55//55 377//377
f 375//375 647//644 377//377 99//99
f 58//58 293//293 648//645 368//368
f 293//293 49//49 378//378 648//645
f 648//645 378//378 100//100 380//380
f 368//368 648//645 380//380 94//94
f 101//101 379//379 649//646 381//381
f 379//379 50//50 294//294 649//646
f 649//646 294//294 59//59 369//369
f 381//381 649//646 369//369 95//95
f 49//49 288//288 650//647 378//378
f 288//288 54//54 376//376 650//647
f 650//647 376//376 98//98 382//382
f 378//378 650//647 382//382 100//100
f 99//99 377//377 651//648 383//383
f 377//377 55//55 289//289 651//648
f 651//648 289//289 50//50 379//379
f 383//383 651//648 379//379 101//101
f 100//100 382//382 652//649 388//388
f 382//382 98//98 384//384 652//649
f 652//649 384//384 102//102 386//386
f 388//388 652//649 386//386 104//104
f 103//103 385//385 653//650 387//387
f 385//385 99//99 383//383 653//650
f 653//650 383//383 101//101 389//389
f 387//387 653//650 389//389 105//105
f 94//94 380//380 654//651 392//392
f 380//380 100//100 388//388 654//651
f 654//651 388//388 104//104 390//390
f 392//392 654//651 390//390 106//106
f 105//105 389//389 655//652 391//391
f 389//389 101//101 381//381 655//652
f 655//652 381//381 95//95 393//393
f 391//391 655//652 393//393 107//107
f 98//98 374//374 656//653 384//384
f 374//374 96//96 394//394 656//653
f 656//653 394//394 108//108 396//396
f 384//384 656//653 396//396 102//102
f 109//109 395//395 657//654 397//397
f 395//395 97//97 375//375 657//654
f 657//654 375//375 99//99 385//385
f 397//397 657//654 385//385 103//103
f 96//96 370//370 658//655 394//394
f 370//370 94//94 392//392 658//655
f 658//655 392//392 106//106 398//398
f 394//394 658//655 398//398 108//108
f 107//107 393//393 659//656 399//399
f 393//393 95//95 371//371 659//656
f 659//656 371//371 97//97 395//395
f 399//399 659//656 395//395 109//109
f 104//104 386//386 660//657 390//390
f 386//386 102//102 396//396 660//657
f 660//657 396//396 108//108 398//398
f 390//390 660//657 398//398 106//106
f 109//109 397//397 661//658 399//399
f 397//397 103//103 387//387 661//658
f 661//658 387//387 105//105 391//391
f 399//399 661//658 391//391 107//107
f 8//8 232//232 662//659 404//404
f 232//232 24//24 400//400 662//659
f 662//659 400//400 112//112 402//402
f 404//404 662//659 402//402 110//110
f 113//113 401//401 663//660 403//403
f 401//401 24//24 232//232 663//660
f 663//660 232//232 8//8 405//405
f 403//403 663//660 405//405 111//111
f 24//24 230//230 664//661 400//400
f 230//230 20//20 406//406 664//661
f 664//661 406//406 114//114 408//408
f 400//400 664//661 408//408 112//112
f 115//115 407//407 665//662 409//409
f 407//407 21//21 231//231 665//662
f 665//662 231//231 24//24 401//401
f 409//409 665//662 401//401 113//113
f 20//20 226//226 666//663 406//406
f 226//226 1//1 410//410 666//663
f 666//663 410//410 116//116 412//412
f 406//406 666//663 412//412 114//114
f 117//117 411//411 667//664 413//413
f 411//411 2//2 227//227 667//664
f 667//664 227//227 21//21 407//407
f 413//413 667//664 407//407 115//115
f 1//1 199//199 668//665 410//410
f 199//199 8//8 404//404 668//665
f 668//665 404//404 110//110 414//414
f 410//410 668//665 414//414 116//116
f 111//111 405//405 669//666 415//415
f 405//405 8//8 200//200 669//666
f 669//666 200//200 2//2 411//411
f 415//415 669//666 411//411 117//117
f 114//114 412//412 670//667 408//408
f 412//412 116//116 414//414 670//667
f 670//667 414//414 110//110 402//402
f 408//408 670//667 402//402 112//112
f 111//111 415//415 671//668 403//403
f 415//415 117//117 413//413 671//668
f 671//668 413//413 115//115 409//409
f 403//403 671//668 409//409 113//113
f 87//87 355//355 672//669 418//418
f 355//355 88//88 416//416 672//669
f 672//669 416//416 119//119 417//417
f 418//418 672//669 417//417 118//118
f 88//88 354//354 673//670 416//416
f 354//354 86//86 419//419 673//670
f 673//670 419//419 120//120 420//420
f 416//416 673//670 420//420 119//119
f 79//79 347//347 674//671 422//422
f 347//347 87//87 418//418 674//671
f 674//671 418//418 118//118 421//421
f 422//422 674//671 421//421 121//121
f 86//86 346//346 675//672 419//419
f 346//346 78//78 423//423 675//672
f 675//672 423//423 122//122 424//424
f 419//419 675//672 424//424 120//120
f 119//119 427//427 676//673 417//417
f 427//427 123//123 425//425 676//673
f 676//673 425//425 121//121 421//421
f 417//417 676//673 421//421 118//118
f 122//122 426//426 677//674 424//424
f 426//426 123//123 427//427 677//674
f 677//674 427//427 119//119 420//420
f 424//424 677//674 420//420 120//120
f 122//122 423//423 678//675 428//428
f 423//423 78//78 432//432 678//675
f 678//675 432//432 127//127 433//433
f 428//428 678//675 433//433 124//124
f 79//79 422//422 679//676 435//435
f 422//422 121//121 431//431 679//676
f 679//676 431//431 126//126 434//434
f 435//435 679//676 434//434 128//128
f 80//80 340//340 680//677 437//437
f 340//340 79//79 435//435 680//677
f 680//677 435//435 128//128 436//436
f 437//437 680//677 436//436 129//129
f 78//78 339//339 681//678 432//432
f 339//339 80//80 437//437 681//678
f 681//678 437//437 129//129 438//438
f 432//432 681//678 438//438 127//127
f 127//127 438//438 682//679 433//433
f 438//438 129//129 439//439 682//679
f 682//679 439//439 125//125 429//429
f 433//433 682//679 429//429 124//124
f 129//129 436//436 683//680 439//439
f 436//436 128//128 434//434 683//680
f 683//680 434//434 126//126 430//430
f 439//439 683//680 430//430 125//125
f 126//126 431//431 684//681 442//442
f 431//431 121//121 440//440 684//681
f 684//681 440//440 130//130 441//441
f 442//442 684//681 441//441 131//131
f 125//125 430//430 685//682 444//444
f 430//430 126//126 442//442 685//682
f 685//682 442//442 131//131 443//443
f 444//444 685//682 443//443 132//132
f 124//124 429//429 686//683 446//446
f 429//429 125//125 444//444 686//683
f 686//683 444//444 132//132 445//445
f 446//446 686//683 445//445 133//133
f 122//122 428//428 687//684 448//448
f 428//428 124//124 446//446 687//684
f 687//684 446//446 133//133 447//447
f 448//448 687//684 447//447 134//134
f 122//122 448//448 688//685 457//457
f 448//448 134//134 455//455 688//685
f 688//685 455//455 138//138 456//456
f 457//457 688//685 456//456 139//139
f 130//130 440//440 689//686 451//451
f 440//440 121//121 458//458 689//686
f 689//686 458//458 140//140 459//459
f 451//451 689//686 459//459 136//136
f 140//140 462//462 690//687 459//459
f 462//462 141//141 463//463 690//687
f 690//687 463//463 137//137 452//452
f 459//459 690//687 452//452 136//136
f 141//141 460//460 691//688 463//463
f 460//460 139//139 456//456 691//688
f 691//688 456//456 138//138 454//454
f 463//463 691//688 454//454 137//137
f 135//135 464//464 692//689 449//449
f 464//464 143//143 465//465 692//689
f 692//689 465//465 142//142 466//466
f 449//449 692//689 466//466 134//134
f 137//137 467//467 693//690 453//453
f 467//467 144//144 468//468 693//690
f 693//690 468//468 143//143 464//464
f 453//453 693//690 464//464 135//135
f 134//134 466//466 694//691 455//455
f 466//466 142//142 471//471 694//691
f 694//691 471//471 145//145 469//469
f 455//455 694//691 469//469 138//138
f 142//142 465//465 695//692 471//471
f 465//465 143//143 468//468 695//692
f 695//692 468//468 144//144 470//470
f 471//471 695//692 470//470 145//145
f 130//130 472//472 696//693 450//450
f 472//472 147//147 473//473 696//693
f 696//693 473//473 146//146 474//474
f 450//450 696//693 474//474 135//135
f 136//136 475//475 697//694 451//451
f 475//475 148//148 476//476 697//694
f 697//694 476//476 147//147 472//472
f 451//451 697//694 472//472 130//130
f 135//135 474//474 698//695 453//453
f 474//474 146//146 479//479 698//695
f 698//695 479//479 149//149 477//477
f 453//453 698//695 477//477 137//137
f 146//146 473//473 699//696 479//479
f 473//473 147//147 476//476 699//696
f 699//696 476//476 148//148 478//478
f 479//479 699//696 478//478 149//149
f 149//149 480//480 700//697 477//477
f 480//480 151//151 481//481 700//697
f 700//697 481//481 150//150 482//482
f 477//477 700//697 482//482 137//137
f 148//148 483//483 701//698 478//478
f 483//483 152//152 484//484 701//698
f 701//698 484//484 151//151 480//480
f 478//478 701//698 480//480 149//149
f 136//136 485//485 702//699 475//475
f 485//485 153//153 486//486 702//699
f 702//699 486//486 152//152 483//483
f 475//475 702//699 483//483 148//148
f 137//137 482//482 703//700 452//452
f 482//482 150//150 487//487 703//700
f 703//700 487//487 153//153 485//485
f 452//452 703//700 485//485 136//136
f 150//150 481//481 704//701 487//487
f 481//481 151//151 484//484 704//701
f 704//701 484//484 152//152 486//486
f 487//487 704//701 486//486 153//153
f 145//145 488//488 705//702 469//469
f 488//488 155//155 489//489 705//702
f 705//702 489//489 154//154 490//490
f 469//469 705//702 490//490 138//138
f 144//144 491//491 706//703 470//470
f 491//491 156//156 492//492 706//703
f 706//703 492//492 155//155 488//488
f 470//470 706//703 488//488 145//145
f 137//137 493//493 707//704 467//467
f 493//493 157//157 494//494 707//704
f 707//704 494//494 156//156 491//491
f 467//467 707//704 491//491 144//144
f 138//138 490//490 708//705 454//454
f 490//490 154//154 495//495 708//705
f 708//705 495//495 157//157 493//493
f 454//454 708//705 493//493 137//137
f 154//154 489//489 709//706 495//495
f 489//489 155//155 492//492 709//706
f 709//706 492//492 156//156 494//494
f 495//495 709//706 494//494 157//157
f 130//130 496//496 710//707 499//499
f 496//496 134//134 497//497 710//707
f 710//707 497//497 159//159 498//498
f 499//499 710//707 498//498 158//158
f 134//134 447//447 711//708 497//497
f 447//447 133//133 502//502 711//708
f 711//708 502//502 161//161 503//503
f 497//497 711//708 503//503 159//159
f 131//131 441//441 712//709 500//500
f 441//441 130//130 499//499 712//709
f 712//709 499//499 158//158 504//504
f 500//500 712//709 504//504 160//160
f 160//160 504//504 713//710 507//507
f 504//504 158//158 505//505 713//710
f 713//710 505//505 163//163 506//506
f 507//507 713//710 506//506 162//162
f 159//159 503//503 714//711 510//510
f 503//503 161//161 508//508 714//711
f 714//711 508//508 164//164 509//509
f 510//510 714//711 509//509 165//165
f 161//161 501//501 715//712 508//508
f 501//501 160//160 507//507 715//712
f 715//712 507//507 162//162 511//511
f 508//508 715//712 511//511 164//164
f 158//158 498//498 716//713 505//505
f 498//498 159//159 510//510 716//713
f 716//713 510//510 165//165 512//512
f 505//505 716//713 512//512 163//163
f 123//123 513//513 717//714 425//425
f 513//513 167//167 514//514 717//714
f 717//714 514//514 166//166 515//515
f 425//425 717//714 515//515 121//121
f 141//141 516//516 718//715 461//461
f 516//516 168//168 517//517 718//715
f 718//715 517//517 167//167 513//513
f 461//461 718//715 513//513 123//123
f 140//140 518//518 719//716 462//462
f 518//518 169//169 519//519 719//716
f 719//716 519//519 168//168 516//516
f 462//462 719//716 516//516 141//141
f 121//121 515//515 720//717 458//458
f 515//515 166//166 520//520 720//717
f 720//717 520//520 169//169 518//518
f 458//458 720//717 518//518 140//140
f 166//166 514//514 721//718 520//520
f 514//514 167//167 517//517 721//718
f 721//718 517//517 168//168 519//519
f 520//520 721//718 519//519 169//169
f 122//122 521//521 722//719 426//426
f 521//521 171//171 522//522 722//719
f 722//719 522//522 170//170 523//523
f 426//426 722//719 523//523 123//123
f 139//139 524//524 723//720 457//457
f 524//524 172//172 525//525 723//720
f 723//720 525//525 171//171 521//521
f 457//457 723//720 521//521 122//122
f 141//141 526//526 724//721 460//460
f 526//526 173//173 527//527 724//721
f 724//721 527//527 172//172 524//524
f 460//460 724//721 524//524 139//139
f 123//123 523//523 725//722 461//461
f 523//523 170//170 528//528 725//722
f 725//722 528//528 173//173 526//526
f 461//461 725//722 526//526 141//141
f 170//170 522//522 726//723 528//528
f 522//522 171//171 525//525 726//723
f 726//723 525//525 172//172 527//527
f 528//528 726//723 527//527 173//173
f 72//72 529//529 727//724 338//338
f 529//529 175//175 530//530 727//724
f 727//724 530//530 174//174 531//531
f 338//338 727//724 531//531 80//80
f 69//69 532//532 728//725 324//324
f 532//532 176//176 533//533 728//725
f 728//725 533//533 175//175 529//529
f 324//324 728//725 529//529 72//72
f 79//79 534//534 729//726 331//331
f 534//534 177//177 535//535 729//726
f 729//726 535//535 176//176 532//532
f 331//331 729//726 532//532 69//69
f 80//80 531//531 730//727 340//340
f 531//531 174//174 536//536 730//727
f 730//727 536//536 177//177 534//534
f 340//340 730//727 534//534 79//79
f 174//174 530//530 731//728 536//536
f 530//530 175//175 533//533 731//728
f 731//728 533//533 176//176 535//535
f 536//536 731//728 535//535 177//177
f 72//72 537//537 732//729 323//323
f 537//537 179//179 538//538 732//729
f 732//729 538//538 178//178 539//539
f 323//323 732//729 539//539 68//68
f 80//80 540//540 733//730 338//338
f 540//540 180//180 541//541 733//730
f 733//730 541//541 179//179 537//537
f 338//338 733//730 537//537 72//72
f 78//78 542//542 734//731 339//339
f 542//542 181//181 543//543 734//731
f 734//731 543//543 180//180 540//540
f 339//339 734//731 540//540 80//80
f 68//68 539//539 735//732 330//330
f 539//539 178//178 544//544 735//732
f 735//732 544//544 181//181 542//542
f 330//330 735//732 542//542 78//78
f 178//178 538//538 736//733 544//544
f 538//538 179//179 541//541 736//733
f 736//733 541//541 180//180 543//543
f 544//544 736//733 543//543 181//181
f 131//131 500//500 737//734 443//443
f 160//160 545//545 737//734 500//500
f 132//132 443//443 737//734 545//545
f 132//132 545//545 738//735 445//445
f 160//160 546//546 738//735 545//545
f 133//133 445//445 738//735 546//546
f 133//133 546//546 739//736 502//502
f 160//160 501//501 739//736 546//546
f 161//161 502//502 739//736 501//501
f 163//163 512//512 740//737 549//549
f 512//512 165//165 547//547 740//737
f 740//737 547//547 182//182 548//548
f 549//549 740//737 548//548 184//184
f 164//164 511//511 741//738 552//552
f 511//511 162//162 550//550 741//738
f 741//738 550//550 185//185 551//551
f 552//552 741//738 551//551 183//183
f 165//165 509//509 742//739 547//547
f 509//509 164//164 552//552 742//739
f 742//739 552//552 183//183 553//553
f 547//547 742//739 553//553 182//182
f 162//162 506//506 743//740 550//550
f 506//506 163//163 549//549 743//740
f 743//740 549//549 184//184 554//554
f 550//550 743//740 554//554 185//185
f 184//184 548//548 744//741 554//554
f 548//548 182//182 553//553 744//741
f 744//741 553//553 183//183 551//551
f 554//554 744//741 551//551 185//185
f 130//130 450//450 745//742 496//496
f 135//135 449//449 745//742 450//450
f 134//134 496//496 745//742 449//449
f 17//17 218//218 746//743 557//556
f 218//218 19//19 555//187 746//743
f 746//743 555//187 187//187 556//555
f 557//556 746//743 556//555 186//186
f 19//19 219//219 747//744 555//187
f 219//219 18//18 558//557 747//744
f 747//744 558//557 188//188 559//558
f 555//187 747//744 559//558 187//187
f 20//20 224//224 748//745 562//189
f 224//224 22//22 560//559 748//745
f 748//745 560//559 190//190 561//560
f 562//189 748//745 561//560 189//189
f 23//23 225//225 749//746 565//562
f 225//225 21//21 563//191 749//746
f 749//746 563//191 191//191 564//561
f 565//562 749//746 564//561 192//192
f 22//22 228//228 750//747 560//559
f 228//228 17//17 557//556 750//747
f 750//747 557//556 186//186 566//563
f 560//559 750//747 566//563 190//190
f 18//18 229//229 751//748 558//557
f 229//229 23//23 565//562 751//748
f 751//748 565//562 192//192 567//564
f 558//557 751//748 567//564 188//188
