# Blender 5.1.1
# www.blender.org
mtllib mesa.mtl
o Cube
v 1.500000 1.102982 0.846475
v -1.500000 1.102982 0.846475
v -1.500000 1.102982 -0.853525
v 1.500000 1.102982 -0.853525
v 1.500000 1.294982 0.846475
v -1.500000 1.294982 0.846475
v -1.499999 1.294982 -0.853525
v 1.500000 1.294982 -0.853525
v -1.500000 1.198982 0.966675
v 1.500000 1.198982 0.966675
v -1.500000 1.198982 -0.973725
v 1.500000 1.198982 -0.973725
v -1.311681 0.000000 0.662122
v -1.289805 0.000000 0.743764
v -1.349571 0.000000 0.803529
v -1.431212 0.000000 0.781653
v -1.453088 0.000000 0.700012
v -1.393322 0.000000 0.640246
v -1.289805 1.174302 0.743764
v -1.311681 1.174302 0.662122
v -1.349571 1.174302 0.803529
v -1.431212 1.174302 0.781653
v -1.453088 1.174302 0.700012
v -1.393322 1.174302 0.640246
v -1.393322 1.174302 -0.819327
v -1.453088 1.174302 -0.759561
v -1.431212 1.174302 -0.677920
v -1.349571 1.174302 -0.656044
v -1.311681 1.174302 -0.797451
v -1.289805 1.174302 -0.715810
v -1.393322 0.000000 -0.819327
v -1.453088 0.000000 -0.759561
v -1.431212 0.000000 -0.677920
v -1.349571 0.000000 -0.656044
v -1.289805 0.000000 -0.715810
v -1.311681 0.000000 -0.797451
v 1.418338 0.000000 -0.797451
v 1.440214 0.000000 -0.715810
v 1.380449 0.000000 -0.656044
v 1.298807 0.000000 -0.677920
v 1.276932 0.000000 -0.759561
v 1.336697 0.000000 -0.819327
v 1.440214 1.174302 -0.715810
v 1.418338 1.174302 -0.797451
v 1.380449 1.174302 -0.656044
v 1.298807 1.174302 -0.677920
v 1.276932 1.174302 -0.759561
v 1.336697 1.174302 -0.819327
v 1.336697 1.174302 0.640246
v 1.276932 1.174302 0.700012
v 1.298807 1.174302 0.781653
v 1.380449 1.174302 0.803529
v 1.418338 1.174302 0.662122
v 1.440214 1.174302 0.743764
v 1.336697 0.000000 0.640246
v 1.276932 0.000000 0.700012
v 1.298807 0.000000 0.781653
v 1.380449 0.000000 0.803529
v 1.440214 0.000000 0.743764
v 1.418338 0.000000 0.662122
vn -0.0000 -1.0000 -0.0000
vn -0.0000 1.0000 -0.0000
vn -0.0000 -0.7814 0.6241
vn -0.0000 0.7814 0.6241
vn -1.0000 -0.0000 -0.0000
vn -0.0000 -0.7814 -0.6241
vn -0.0000 0.7814 -0.6241
vn 1.0000 -0.0000 -0.0000
vn 0.9659 -0.0000 -0.2588
vn 0.7071 -0.0000 0.7071
vn -0.2588 -0.0000 0.9659
vn -0.9659 -0.0000 0.2588
vn -0.7071 -0.0000 -0.7071
vn 0.2588 -0.0000 -0.9659
s 0
usemtl Material
f 1//1 2//1 3//1 4//1
f 5//2 8//2 7//2 6//2
f 1//3 10//3 9//3 2//3
f 10//4 5//4 6//4 9//4
f 2//5 9//5 11//5 3//5
f 9//5 6//5 7//5 11//5
f 3//6 11//6 12//6 4//6
f 11//7 7//7 8//7 12//7
f 5//8 10//8 12//8 8//8
f 10//8 1//8 4//8 12//8
f 14//9 13//9 20//9 19//9
f 15//10 14//10 19//10 21//10
f 16//11 15//11 21//11 22//11
f 17//12 16//12 22//12 23//12
f 18//13 17//13 23//13 24//13
f 13//14 18//14 24//14 20//14
f 36//14 31//14 25//14 29//14
f 31//13 32//13 26//13 25//13
f 32//12 33//12 27//12 26//12
f 33//11 34//11 28//11 27//11
f 34//10 35//10 30//10 28//10
f 35//9 36//9 29//9 30//9
f 38//9 37//9 44//9 43//9
f 39//10 38//10 43//10 45//10
f 40//11 39//11 45//11 46//11
f 41//12 40//12 46//12 47//12
f 42//13 41//13 47//13 48//13
f 37//14 42//14 48//14 44//14
f 60//14 55//14 49//14 53//14
f 55//13 56//13 50//13 49//13
f 56//12 57//12 51//12 50//12
f 57//11 58//11 52//11 51//11
f 58//10 59//10 54//10 52//10
f 59//9 60//9 53//9 54//9
