# Blender 5.1.1
# www.blender.org
mtllib windows_half_block.mtl
o WindowsDoubleLow1Boards
v -3.589534 -0.231028 0.096041
v -3.589534 -0.231028 0.073242
v -3.767999 0.293623 0.073242
v -3.767999 0.293623 0.096041
v -3.673119 -0.266347 0.096041
v -3.673119 -0.266347 0.073242
v -3.854737 0.266969 0.073242
v -3.854737 0.266969 0.096041
v -4.266543 -0.237101 0.096041
v -4.266543 -0.237101 0.073242
v -4.149540 0.278483 0.073242
v -4.149540 0.278483 0.096041
v -4.356404 -0.224500 0.096041
v -4.356404 -0.224500 0.073242
v -4.239402 0.291084 0.073242
v -4.239402 0.291084 0.096041
v -3.970705 -0.262457 0.072886
v -3.970705 -0.262457 0.050087
v -3.382747 -0.262024 0.050087
v -3.382747 -0.262024 0.072886
v -3.971154 -0.171718 0.072886
v -3.971154 -0.171718 0.050087
v -3.383196 -0.171285 0.050087
v -3.383196 -0.171285 0.072886
v -3.989017 -0.157576 0.072886
v -3.989017 -0.157576 0.050087
v -3.516479 -0.155479 0.050087
v -3.516479 -0.155479 0.072886
v -3.989466 -0.066837 0.072886
v -3.989466 -0.066837 0.050087
v -3.516929 -0.064739 0.050087
v -3.516929 -0.064739 0.072886
v -4.000670 -0.056025 0.072886
v -4.000670 -0.056025 0.050087
v -3.434629 -0.054483 0.050087
v -3.434629 -0.054483 0.072886
v -4.001120 0.034714 0.072886
v -4.001120 0.034714 0.050087
v -3.435079 0.036257 0.050087
v -3.435079 0.036257 0.072886
v -4.000191 0.056244 0.072886
v -4.000191 0.056244 0.050087
v -3.404073 0.052465 0.050087
v -3.404073 0.052465 0.072886
v -3.998107 0.146961 0.072886
v -3.998107 0.146961 0.050087
v -3.401988 0.143182 0.050087
v -3.401988 0.143182 0.072886
v -4.002132 0.155688 0.072886
v -4.002132 0.155688 0.050087
v -3.527139 0.161653 0.050087
v -3.527139 0.161653 0.072886
v -4.002968 0.246424 0.072886
v -4.002968 0.246424 0.050087
v -3.527975 0.252390 0.050087
v -3.527975 0.252390 0.072886
v -4.611935 -0.252996 0.072886
v -4.611935 -0.252996 0.050087
v -4.001856 -0.244006 0.050087
v -4.001856 -0.244006 0.072886
v -4.613389 -0.162267 0.072886
v -4.613389 -0.162267 0.050087
v -4.003310 -0.153277 0.050087
v -4.003310 -0.153277 0.072886
v -4.490689 -0.152729 0.072886
v -4.490689 -0.152729 0.050087
v -4.002607 -0.148119 0.050087
v -4.002607 -0.148119 0.072886
v -4.490558 -0.061989 0.072886
v -4.490558 -0.061989 0.050087
v -4.002476 -0.057378 0.050087
v -4.002476 -0.057378 0.072886
v -4.629729 -0.047042 0.072886
v -4.629729 -0.047042 0.050087
v -4.020956 -0.048484 0.050087
v -4.020956 -0.048484 0.072886
v -4.629527 0.043698 0.072886
v -4.629527 0.043698 0.050087
v -4.020754 0.042256 0.050087
v -4.020754 0.042256 0.072886
v -4.469047 0.051935 0.072886
v -4.469047 0.051935 0.050087
v -4.010180 0.053988 0.050087
v -4.010180 0.053988 0.072886
v -4.470501 0.142664 0.072886
v -4.470501 0.142664 0.050087
v -4.011634 0.144717 0.050087
v -4.011634 0.144717 0.072886
v -4.570594 0.150989 0.072886
v -4.570594 0.150989 0.050087
v -4.011845 0.165528 0.050087
v -4.011845 0.165528 0.072886
v -4.572048 0.241718 0.072886
v -4.572048 0.241718 0.050087
v -4.013299 0.256257 0.050087
v -4.013299 0.256257 0.072886
vn 0.3892 -0.9211 -0.0000
vn -0.0000 -0.0000 -1.0000
vn -0.2937 0.9559 -0.0000
vn -0.0000 -0.0000 1.0000
vn 0.9467 0.3220 -0.0000
vn -0.9466 -0.3224 -0.0000
vn -0.1389 -0.9903 -0.0000
vn 0.1389 0.9903 -0.0000
vn 0.9752 -0.2213 -0.0000
vn -0.9752 0.2213 -0.0000
vn -1.0000 -0.0050 -0.0000
vn 1.0000 0.0050 -0.0000
vn 0.0007 -1.0000 -0.0000
vn -0.0007 1.0000 -0.0000
vn 0.0044 -1.0000 -0.0000
vn -0.0044 1.0000 -0.0000
vn 0.0027 -1.0000 -0.0000
vn -0.0027 1.0000 -0.0000
vn -0.9997 0.0230 -0.0000
vn 0.9997 -0.0230 -0.0000
vn -0.0063 -1.0000 -0.0000
vn 0.0063 1.0000 -0.0000
vn -1.0000 -0.0092 -0.0000
vn 1.0000 0.0092 -0.0000
vn 0.0126 -0.9999 -0.0000
vn -0.0126 0.9999 -0.0000
vn -0.9999 -0.0160 -0.0000
vn 0.9999 0.0160 -0.0000
vn 0.0147 -0.9999 -0.0000
vn -0.0147 0.9999 -0.0000
vn -1.0000 0.0015 -0.0000
vn 1.0000 -0.0015 -0.0000
vn 0.0094 -1.0000 -0.0000
vn -0.0094 1.0000 -0.0000
vn -1.0000 0.0022 -0.0000
vn 1.0000 -0.0022 -0.0000
vn -0.0024 -1.0000 -0.0000
vn 0.0024 1.0000 -0.0000
vn 0.0045 -1.0000 -0.0000
vn -0.0045 1.0000 -0.0000
vn 0.0260 -0.9997 -0.0000
vn -0.0260 0.9997 -0.0000
vt 0.254434 1.112295
vt 0.274096 1.112295
vt 0.274096 1.198985
vt 0.254434 1.198985
vt 0.938993 0.000000
vt 0.938993 0.578033
vt 0.860771 0.575232
vt 0.860936 0.006658
vt 0.313028 1.201778
vt 0.293366 1.201778
vt 0.293366 1.112295
vt 0.313028 1.112295
vt 0.860771 0.000000
vt 0.860771 0.578033
vt 0.782714 0.571375
vt 0.782549 0.002801
vt 1.076232 0.000000
vt 1.095894 0.000000
vt 1.095894 0.540490
vt 1.076232 0.540490
vt 1.056569 0.000000
vt 1.076232 0.549424
vt 1.056569 0.549424
vt 0.254434 1.204116
vt 0.234772 1.204116
vt 0.234772 1.112295
vt 0.782549 0.580960
vt 0.782549 1.123392
vt 0.704567 1.131188
vt 0.704567 0.588756
vt 0.058987 1.202933
vt 0.039325 1.202933
vt 0.039325 1.110991
vt 0.058987 1.110991
vt 0.626035 1.123392
vt 0.626035 0.580960
vt 0.704017 0.588756
vt 0.704017 1.131188
vt 1.096354 1.105503
vt 1.076692 1.105503
vt 1.076692 0.578033
vt 1.096355 0.578033
vt 1.115556 0.000000
vt 1.115556 0.527467
vt 1.095894 0.527467
vt 0.469522 1.105431
vt 0.489184 1.105431
vt 0.489184 1.198527
vt 0.469522 1.198527
vt 0.567437 1.198527
vt 0.547774 1.198527
vt 0.547774 1.105431
vt 0.567437 1.105431
vt 0.626035 0.000392
vt 0.626035 0.603629
vt 0.547778 0.603237
vt 0.547778 0.000000
vt 1.037367 1.181068
vt 1.017705 1.181068
vt 1.017705 0.578033
vt 1.037367 0.578033
vt 0.332278 0.613171
vt 0.351940 0.613171
vt 0.351940 1.216312
vt 0.332278 1.216312
vt 0.587099 1.198527
vt 0.587099 1.105431
vt 0.508846 1.105431
vt 0.508846 1.198528
vt 0.489184 1.198528
vt 0.000000 1.110943
vt 0.000000 0.626121
vt 0.078257 0.626169
vt 0.078257 1.110991
vt 1.174543 0.484704
vt 1.154881 0.484704
vt 1.154881 0.000000
vt 1.174543 0.000000
vt 1.135679 0.578033
vt 1.155341 0.578033
vt 1.155342 1.062807
vt 1.135679 1.062807
vt 0.430589 1.100857
vt 0.450252 1.100857
vt 0.450252 1.193954
vt 0.430589 1.193954
vt 0.528509 1.198528
vt 0.508846 1.198528
vt 0.508846 1.105431
vt 0.528509 1.105431
vt 0.626035 0.580753
vt 0.626035 0.000000
vt 0.704292 0.000207
vt 0.704292 0.580960
vt 1.076692 1.158620
vt 1.057030 1.158620
vt 1.057030 0.578033
vt 1.076692 0.578033
vt 1.057030 0.578033
vt 1.057030 1.158713
vt 1.037367 1.158713
vt 0.000000 1.110991
vt 0.019662 1.110991
vt 0.019662 1.204032
vt 0.000000 1.204032
vt 0.039325 1.204032
vt 0.019662 1.110991
vt 0.313029 0.613171
vt 0.313029 0.001549
vt 0.391275 0.000000
vt 0.391275 0.611622
vt 0.351940 0.613171
vt 0.371603 0.613171
vt 0.371603 1.224461
vt 0.351940 1.224461
vt 0.391265 1.224603
vt 0.371603 1.224603
vt 0.391265 0.613171
vt 0.958655 0.564969
vt 0.938993 0.564969
vt 0.938993 0.471871
vt 0.958655 0.471871
vt 0.978317 0.564969
vt 0.978317 0.471871
vt 0.234772 1.112295
vt 0.234772 0.624920
vt 0.313028 0.624608
vt 0.313029 1.111984
vt 1.135219 0.000000
vt 1.154881 0.000000
vt 1.154881 0.487327
vt 1.135219 0.487327
vt 1.116017 0.578033
vt 1.135679 0.578033
vt 1.135679 1.065399
vt 1.116017 1.065399
vt 0.097919 1.097992
vt 0.117582 1.097992
vt 0.117582 1.191090
vt 0.097920 1.191090
vt 0.137244 1.191090
vt 0.117582 1.191090
vt 0.117582 1.097992
vt 0.137244 1.097992
vt 0.000000 0.626001
vt 0.000000 0.000000
vt 0.078257 0.000120
vt 0.078257 0.626121
vt 0.978381 1.203990
vt 0.958718 1.203990
vt 0.958718 0.578033
vt 0.978381 0.578033
vt 0.939056 0.578033
vt 0.958718 0.578033
vt 0.958718 1.204029
vt 0.939056 1.204029
vt 0.156514 1.109479
vt 0.176177 1.109479
vt 0.176177 1.202568
vt 0.156514 1.202568
vt 0.606761 1.198521
vt 0.587099 1.198521
vt 0.606761 1.105431
vt 0.547774 0.603629
vt 0.547774 1.104417
vt 0.469522 0.604644
vt 1.115556 0.000000
vt 1.135219 0.500714
vt 1.115556 0.500714
vt 1.116017 1.078800
vt 1.096355 1.078800
vt 1.116017 0.578033
vt 0.195839 1.109479
vt 0.215501 1.109479
vt 0.215501 1.202567
vt 0.195839 1.202567
vt 0.176177 1.109479
vt 0.195839 1.202567
vt 0.176177 1.202567
vt 0.156514 0.624595
vt 0.156514 0.000000
vt 0.234772 0.000013
vt 0.234772 0.624608
vt 1.017705 1.202366
vt 0.998043 1.202366
vt 0.998043 0.578033
vt 0.998043 1.202492
vt 0.978381 1.202492
vt 0.997979 0.471871
vt 0.997979 0.564969
vt 0.978317 0.564969
vt 0.430589 1.193955
vt 0.410927 1.193955
vt 0.410927 1.100857
vt 0.078257 1.096917
vt 0.078257 0.626121
vt 0.156509 0.627196
vt 0.156509 1.097992
vt 1.194205 0.470681
vt 1.174543 0.470681
vt 1.174543 0.000000
vt 1.194205 0.000000
vt 1.155342 0.578033
vt 1.175004 0.578033
vt 1.175004 1.048782
vt 1.155342 1.048782
vt 0.078257 1.097992
vt 0.097919 1.097992
vt 0.097919 1.191090
vt 0.078257 1.191090
vt 0.391265 1.100857
vt 0.410927 1.100857
vt 0.410927 1.193955
vt 0.391265 1.193955
vt 0.782549 1.152426
vt 0.782549 0.578963
vt 0.860802 0.578033
vt 0.860802 1.151496
vt 1.036907 0.573463
vt 1.017245 0.573463
vt 1.017245 0.000000
vt 1.036907 0.000000
vt 1.056569 0.573447
vt 1.036907 0.573447
vt 1.036907 0.000000
vt 0.469522 1.100857
vt 0.391265 1.100546
vt 0.469522 0.613482
vt 0.469522 0.613171
vt 0.391275 0.611622
vt 0.391275 0.000000
vt 0.469522 0.001549
vt 0.782549 0.580753
vt 0.704292 0.580960
vt 0.704292 0.000207
vt 0.782549 0.000000
vt 0.156514 0.624656
vt 0.234772 0.624608
vt 0.234772 1.109431
vt 0.156514 1.109479
vt 0.547778 0.603237
vt 0.469522 0.603629
vt 0.469522 0.000393
vt 0.547778 0.000000
vt 0.939056 1.152426
vt 0.860802 1.151496
vt 0.939056 0.578963
vt 1.017245 0.470796
vt 0.938993 0.001075
vt 0.234772 0.000013
vt 0.313029 0.000000
vt 0.313029 0.624595
vt 0.234772 0.624608
vt 0.626031 1.105431
vt 0.547778 1.104417
vt 0.547778 0.603629
vt 0.626031 0.604644
vt 0.156514 0.626001
vt 0.078257 0.626121
vt 0.078257 0.000120
vt 0.156514 0.000000
s 0
usemtl Wood
f 5/1/1 6/2/1 2/3/1 1/4/1
f 6/5/2 7/6/2 3/7/2 2/8/2
f 7/9/3 8/10/3 4/11/3 3/12/3
f 8/13/4 5/14/4 1/15/4 4/16/4
f 1/17/5 2/18/5 3/19/5 4/20/5
f 8/21/6 7/17/6 6/22/6 5/23/6
f 13/24/7 14/25/7 10/26/7 9/1/7
f 14/27/2 15/28/2 11/29/2 10/30/2
f 15/31/8 16/32/8 12/33/8 11/34/8
f 16/35/4 13/36/4 9/37/4 12/38/4
f 9/39/9 10/40/9 11/41/9 12/42/9
f 16/18/10 15/43/10 14/44/10 13/45/10
f 21/46/11 22/47/11 18/48/11 17/49/11
f 23/50/12 24/51/12 20/52/12 19/53/12
f 24/54/4 21/55/4 17/56/4 20/57/4
f 17/58/13 18/59/13 19/60/13 20/61/13
f 24/62/14 23/63/14 22/64/14 21/65/14
f 29/66/11 30/50/11 26/53/11 25/67/11
f 31/47/12 32/68/12 28/69/12 27/70/12
f 32/71/4 29/72/4 25/73/4 28/74/4
f 25/75/15 26/76/15 27/77/15 28/78/15
f 32/79/16 31/80/16 30/81/16 29/82/16
f 37/83/11 38/84/11 34/85/11 33/86/11
f 39/87/12 40/88/12 36/89/12 35/90/12
f 40/91/4 37/92/4 33/93/4 36/94/4
f 33/95/17 34/96/17 35/97/17 36/98/17
f 40/61/18 39/99/18 38/100/18 37/101/18
f 45/102/19 46/103/19 42/104/19 41/105/19
f 47/106/20 48/104/20 44/107/20 43/33/20
f 48/108/4 45/109/4 41/110/4 44/111/4
f 41/112/21 42/113/21 43/114/21 44/115/21
f 48/116/22 47/117/22 46/113/22 45/118/22
f 53/119/23 54/120/23 50/121/23 49/122/23
f 55/123/24 56/119/24 52/122/24 51/124/24
f 56/125/4 53/126/4 49/127/4 52/128/4
f 49/129/25 50/130/25 51/131/25 52/132/25
f 56/133/26 55/134/26 54/135/26 53/136/26
f 61/137/27 62/138/27 58/139/27 57/140/27
f 63/141/28 64/142/28 60/143/28 59/144/28
f 64/145/4 61/146/4 57/147/4 60/148/4
f 57/149/29 58/150/29 59/151/29 60/152/29
f 64/153/30 63/154/30 62/155/30 61/156/30
f 69/157/31 70/158/31 66/159/31 65/160/31
f 71/161/32 72/162/32 68/67/32 67/163/32
f 72/164/4 69/165/4 65/46/4 68/166/4
f 65/167/33 66/129/33 67/168/33 68/169/33
f 72/170/34 71/171/34 70/42/34 69/172/34
f 77/173/35 78/174/35 74/175/35 73/176/35
f 79/177/36 80/173/36 76/178/36 75/179/36
f 80/180/4 77/181/4 73/182/4 76/183/4
f 73/184/37 74/185/37 75/186/37 76/60/37
f 80/152/38 79/186/38 78/187/38 77/188/38
f 85/124/27 86/189/27 82/190/27 81/191/27
f 87/192/28 88/193/28 84/194/28 83/83/28
f 88/195/4 85/196/4 81/197/4 84/198/4
f 81/199/39 82/200/39 83/201/39 84/202/39
f 88/203/40 87/204/40 86/205/40 85/206/40
f 93/207/27 94/208/27 90/209/27 89/210/27
f 95/211/28 96/212/28 92/213/28 91/214/28
f 96/215/4 93/216/4 89/217/4 92/218/4
f 89/219/41 90/220/41 91/221/41 92/222/41
f 96/223/42 95/224/42 94/225/42 93/21/42
f 50/226/2 54/227/2 55/118/2 51/228/2
f 42/229/2 46/230/2 47/231/2 43/232/2
f 34/233/2 38/234/2 39/235/2 35/236/2
f 26/237/2 30/238/2 31/239/2 27/240/2
f 18/241/2 22/242/2 23/243/2 19/244/2
f 90/245/2 94/246/2 95/217/2 91/247/2
f 82/248/2 86/121/2 87/249/2 83/221/2
f 74/250/2 78/251/2 79/252/2 75/253/2
f 66/254/2 70/255/2 71/256/2 67/257/2
f 58/258/2 62/259/2 63/260/2 59/261/2
