# Blender 5.1.1
# www.blender.org
mtllib windows_block.mtl
o WindowsRectDoubleBoards
v 4.349431 -0.378333 0.101978
v 4.349431 -0.378333 0.079179
v 4.170966 0.146318 0.079179
v 4.170966 0.146318 0.101978
v 4.265846 -0.413652 0.101978
v 4.265846 -0.413652 0.079179
v 4.084228 0.119663 0.079179
v 4.084228 0.119663 0.101978
v 4.375292 0.134541 0.101978
v 4.375292 0.134541 0.079179
v 4.173714 0.467640 0.079179
v 4.173714 0.467640 0.101978
v 4.300828 0.082686 0.101978
v 4.300828 0.082686 0.079179
v 4.099250 0.415785 0.079179
v 4.099250 0.415785 0.101978
v 3.717958 -0.477875 0.101978
v 3.717958 -0.477875 0.079179
v 3.873307 0.425965 0.079179
v 3.873307 0.425965 0.101978
v 3.628097 -0.465274 0.101978
v 3.628097 -0.465274 0.079179
v 3.783446 0.438566 0.079179
v 3.783446 0.438566 0.101978
v 4.012132 -0.425396 0.078822
v 4.012132 -0.425396 0.056023
v 4.627835 -0.422188 0.056023
v 4.627835 -0.422188 0.078822
v 4.011683 -0.334656 0.078822
v 4.011683 -0.334656 0.056023
v 4.627386 -0.331449 0.056023
v 4.627386 -0.331449 0.078822
v 4.012132 -0.322180 0.078822
v 4.012132 -0.322180 0.056023
v 4.468301 -0.317585 0.056023
v 4.468301 -0.317585 0.078822
v 4.011683 -0.231440 0.078822
v 4.011683 -0.231440 0.056023
v 4.467851 -0.226846 0.056023
v 4.467851 -0.226846 0.078822
v 4.013797 -0.215634 0.078822
v 4.013797 -0.215634 0.056023
v 4.601754 -0.215202 0.056023
v 4.601754 -0.215202 0.078822
v 4.013347 -0.124895 0.078822
v 4.013347 -0.124895 0.056023
v 4.601305 -0.124462 0.056023
v 4.601305 -0.124462 0.078822
v 3.995484 -0.110754 0.078822
v 3.995484 -0.110754 0.056023
v 4.468022 -0.108656 0.056023
v 4.468022 -0.108656 0.078822
v 3.995035 -0.020014 0.078822
v 3.995035 -0.020014 0.056023
v 4.467573 -0.017917 0.056023
v 4.467573 -0.017917 0.078822
v 3.983831 -0.009203 0.078822
v 3.983831 -0.009203 0.056023
v 4.549871 -0.007660 0.056023
v 4.549871 -0.007660 0.078822
v 3.983381 0.081537 0.078822
v 3.983381 0.081537 0.056023
v 4.549422 0.083079 0.056023
v 4.549422 0.083079 0.078822
v 3.984310 0.103067 0.078822
v 3.984310 0.103067 0.056023
v 4.580428 0.099288 0.056023
v 4.580428 0.099288 0.078822
v 3.986394 0.193783 0.078822
v 3.986394 0.193783 0.056023
v 4.582513 0.190004 0.056023
v 4.582513 0.190004 0.078822
v 3.982369 0.202510 0.078822
v 3.982369 0.202510 0.056023
v 4.457362 0.208476 0.056024
v 4.457362 0.208476 0.078822
v 3.981533 0.293247 0.078822
v 3.981533 0.293247 0.056023
v 4.456527 0.299213 0.056024
v 4.456527 0.299213 0.078822
v 3.993490 0.307763 0.078822
v 3.993490 0.307763 0.056024
v 4.582842 0.320194 0.056024
v 4.582842 0.320194 0.078822
v 3.993692 0.398504 0.078822
v 3.993692 0.398504 0.056024
v 4.583044 0.410935 0.056024
v 4.583044 0.410935 0.078822
v 3.520588 -0.423606 0.078822
v 3.520588 -0.423606 0.056023
v 3.980980 -0.393627 0.056023
v 3.980980 -0.393627 0.078822
v 3.508868 -0.333626 0.078822
v 3.508868 -0.333626 0.056023
v 3.979527 -0.302898 0.056023
v 3.979527 -0.302898 0.078822
v 3.399774 -0.306136 0.078822
v 3.399774 -0.306136 0.056023
v 4.006721 -0.291949 0.056023
v 4.006721 -0.291949 0.078822
v 3.396425 -0.215457 0.078822
v 3.396425 -0.215457 0.056023
v 4.003372 -0.201271 0.056023
v 4.003372 -0.201271 0.078822
v 3.372566 -0.206173 0.078822
v 3.372566 -0.206173 0.056023
v 3.982645 -0.197184 0.056023
v 3.982645 -0.197184 0.078822
v 3.371112 -0.115444 0.078822
v 3.371112 -0.115444 0.056023
v 3.981191 -0.106455 0.056023
v 3.981191 -0.106455 0.078822
v 3.493812 -0.105907 0.078822
v 3.493812 -0.105907 0.056023
v 3.981894 -0.101296 0.056023
v 3.981894 -0.101296 0.078822
v 3.493944 -0.015166 0.078822
v 3.493944 -0.015166 0.056023
v 3.982025 -0.010556 0.056023
v 3.982025 -0.010556 0.078822
v 3.354772 -0.000219 0.078822
v 3.354772 -0.000219 0.056023
v 3.963546 -0.001661 0.056023
v 3.963546 -0.001661 0.078822
v 3.354974 0.090521 0.078822
v 3.354974 0.090521 0.056023
v 3.963748 0.089079 0.056023
v 3.963748 0.089079 0.078822
v 3.515455 0.098757 0.078822
v 3.515455 0.098757 0.056023
v 3.974321 0.100811 0.056023
v 3.974321 0.100811 0.078822
v 3.514000 0.189486 0.078822
v 3.514000 0.189486 0.056023
v 3.972867 0.191539 0.056023
v 3.972867 0.191539 0.078822
v 3.413907 0.197812 0.078822
v 3.413907 0.197812 0.056024
v 3.972657 0.212350 0.056024
v 3.972657 0.212350 0.078822
v 3.412453 0.288540 0.078822
v 3.412453 0.288540 0.056024
v 3.971203 0.303079 0.056024
v 3.971203 0.303079 0.078822
v 3.377957 0.307457 0.078822
v 3.377957 0.307457 0.056024
v 3.981959 0.324471 0.056024
v 3.981959 0.324471 0.078822
v 3.374018 0.398112 0.078822
v 3.374018 0.398112 0.056024
v 3.978020 0.415126 0.056024
v 3.978020 0.415126 0.078822
vn 0.3892 -0.9211 -0.0000
vn -0.0000 -0.0000 -1.0000
vn -0.2937 0.9559 -0.0000
vn -0.0000 -0.0000 1.0000
vn 0.9467 0.3220 -0.0000
vn -0.9466 -0.3224 -0.0000
vn 0.5715 -0.8206 -0.0000
vn -0.5715 0.8206 -0.0000
vn 0.8555 0.5177 -0.0000
vn -0.8555 -0.5177 -0.0000
vn -0.1389 -0.9903 -0.0000
vn 0.1389 0.9903 -0.0000
vn 0.9855 -0.1694 -0.0000
vn -0.9855 0.1694 -0.0000
vn -1.0000 -0.0050 -0.0000
vn 1.0000 0.0050 -0.0000
vn 0.0052 -1.0000 -0.0000
vn -0.0052 1.0000 -0.0000
vn 0.0101 -0.9999 -0.0000
vn -0.0101 0.9999 -0.0000
vn 0.0007 -1.0000 -0.0000
vn -0.0007 1.0000 -0.0000
vn 0.0044 -1.0000 -0.0000
vn -0.0044 1.0000 -0.0000
vn 0.0027 -1.0000 -0.0000
vn -0.0027 1.0000 -0.0000
vn -0.9997 0.0230 -0.0000
vn 0.9997 -0.0230 -0.0000
vn -0.0063 -1.0000 -0.0000
vn 0.0063 1.0000 -0.0000
vn -1.0000 -0.0092 -0.0000
vn 1.0000 0.0092 -0.0000
vn 0.0126 -0.9999 -0.0000
vn -0.0126 0.9999 -0.0000
vn -1.0000 0.0022 -0.0000
vn 1.0000 -0.0022 -0.0000
vn 0.0211 -0.9998 -0.0000
vn -0.0211 0.9998 -0.0000
vn -0.9916 -0.1292 -0.0000
vn 0.9999 0.0160 -0.0000
vn 0.0650 -0.9979 -0.0000
vn -0.0651 0.9979 -0.0000
vn -0.9993 -0.0369 -0.0000
vn 0.9993 0.0369 -0.0000
vn 0.0234 -0.9997 -0.0000
vn -0.0234 0.9997 -0.0000
vn -0.9999 -0.0160 -0.0000
vn 0.0147 -0.9999 -0.0000
vn -0.0147 0.9999 -0.0000
vn -1.0000 0.0015 -0.0000
vn 1.0000 -0.0015 -0.0000
vn 0.0094 -1.0000 -0.0000
vn -0.0094 1.0000 -0.0000
vn -0.0024 -1.0000 -0.0000
vn 0.0024 1.0000 -0.0000
vn 0.0045 -1.0000 -0.0000
vn -0.0045 1.0000 -0.0000
vn 0.0260 -0.9997 -0.0000
vn -0.0260 0.9997 -0.0000
vn -0.9991 -0.0434 -0.0000
vn 0.9991 0.0434 -0.0000
vn 0.0282 -0.9996 -0.0000
vn -0.0282 0.9996 -0.0000
vt 0.600817 0.535437
vt 0.576046 0.535437
vt 0.576046 0.434338
vt 0.600817 0.434338
vt 0.098808 0.203415
vt 0.098808 0.831125
vt 0.000262 0.828084
vt 0.000470 0.210645
vt 0.651382 0.535437
vt 0.626611 0.535437
vt 0.626611 0.434337
vt 0.651382 0.434337
vt 0.088474 0.745886
vt 0.088474 0.288655
vt 0.160104 0.293921
vt 0.160255 0.743671
vt 0.421524 0.203415
vt 0.446295 0.203415
vt 0.446295 0.820853
vt 0.421524 0.820853
vt 0.420999 0.831126
vt 0.396228 0.831126
vt 0.396228 0.203415
vt 0.420999 0.203415
vt 0.676665 0.535437
vt 0.651894 0.535437
vt 0.651894 0.434338
vt 0.676665 0.434338
vt 0.395703 0.203415
vt 0.395703 0.637208
vt 0.297316 0.643682
vt 0.297316 0.209889
vt 0.626100 0.535437
vt 0.601329 0.535437
vt 0.601329 0.434338
vt 0.626100 0.434338
vt 0.239649 0.585494
vt 0.239649 0.271115
vt 0.310953 0.275808
vt 0.310953 0.590186
vt 0.446820 0.203415
vt 0.471591 0.203415
vt 0.471591 0.637211
vt 0.446821 0.637211
vt 0.496887 0.637210
vt 0.472116 0.637210
vt 0.472116 0.203415
vt 0.496886 0.203415
vt 0.522183 0.406139
vt 0.497412 0.406139
vt 0.497412 0.305039
vt 0.522183 0.305039
vt 0.083240 0.871031
vt 0.083240 0.096257
vt 0.157960 0.093889
vt 0.157960 0.868663
vt 0.522183 0.304515
vt 0.497412 0.304515
vt 0.497412 0.203415
vt 0.522183 0.203415
vt 0.319167 0.044577
vt 0.319167 0.887407
vt 0.237884 0.884830
vt 0.237884 0.042001
vt 0.930403 0.954080
vt 0.905631 0.954080
vt 0.905636 -0.067756
vt 0.930403 -0.067756
vt 0.880347 -0.067757
vt 0.905119 -0.067757
vt 0.905119 0.954080
vt 0.880352 0.954080
vt 0.727526 0.510692
vt 0.713963 0.510692
vt 0.713963 0.455336
vt 0.727526 0.455336
vt 0.017598 1.007376
vt 0.017598 0.631759
vt 0.071580 0.631773
vt 0.071580 1.007390
vt 0.739720 0.624327
vt 0.726157 0.624327
vt 0.726157 0.568970
vt 0.739720 0.568970
vt 0.157292 0.560737
vt 0.157292 0.936353
vt 0.103309 0.936367
vt 0.103309 0.560751
vt 0.877360 0.641298
vt 0.863797 0.641298
vt 0.863797 0.265683
vt 0.877360 0.265683
vt 0.848806 0.265683
vt 0.862369 0.265683
vt 0.862369 0.641298
vt 0.848806 0.641298
vt 0.715996 0.397061
vt 0.702433 0.397062
vt 0.702433 0.341705
vt 0.715996 0.341705
vt 0.003502 0.852994
vt 0.274895 0.852994
vt 0.274619 0.908350
vt 0.003226 0.908350
vt 0.757581 0.567513
vt 0.744018 0.567513
vt 0.744018 0.512156
vt 0.757581 0.512156
vt 0.763172 0.580352
vt 0.763172 0.858653
vt 0.709190 0.858937
vt 0.709190 0.580636
vt 0.657678 0.200473
vt 0.657678 0.186565
vt 0.929073 0.186565
vt 0.929073 0.200473
vt 0.970279 0.284889
vt 0.970279 0.298798
vt 0.698885 0.298797
vt 0.698885 0.284889
vt 0.311935 0.737959
vt 0.298372 0.737959
vt 0.298372 0.682602
vt 0.311935 0.682602
vt 0.460917 0.636424
vt 0.460917 0.277739
vt 0.514899 0.277506
vt 0.514899 0.636191
vt 0.742554 0.567513
vt 0.728991 0.567513
vt 0.728991 0.512156
vt 0.742554 0.512156
vt 0.312743 0.264422
vt 0.312743 0.623107
vt 0.258761 0.622874
vt 0.258761 0.264189
vt 0.766609 0.352059
vt 0.753045 0.352059
vt 0.753046 -0.006629
vt 0.766609 -0.006629
vt 0.778408 -0.006629
vt 0.791971 -0.006629
vt 0.791971 0.352059
vt 0.778408 0.352059
vt 0.727475 0.283425
vt 0.713912 0.283425
vt 0.713912 0.228068
vt 0.727475 0.228068
vt 0.000732 0.682602
vt 0.281852 0.682602
vt 0.281880 0.737959
vt 0.000760 0.737959
vt 0.769775 0.624327
vt 0.756212 0.624327
vt 0.756212 0.568970
vt 0.769775 0.568970
vt 0.622698 0.390924
vt 0.622698 0.679199
vt 0.568716 0.679171
vt 0.568716 0.390895
vt 0.652748 0.040716
vt 0.652748 0.026808
vt 0.933867 0.026808
vt 0.933867 0.040716
vt 0.938797 0.114374
vt 0.938797 0.128282
vt 0.657678 0.128282
vt 0.657678 0.114374
vt 0.724692 0.681148
vt 0.711129 0.681148
vt 0.711129 0.625791
vt 0.724692 0.625791
vt 0.350107 0.634769
vt 0.350107 0.289453
vt 0.404089 0.289330
vt 0.404089 0.634645
vt 0.739720 0.681148
vt 0.726157 0.681148
vt 0.726157 0.625791
vt 0.739720 0.625791
vt 0.459500 0.289453
vt 0.459500 0.634768
vt 0.405517 0.634645
vt 0.405517 0.289330
vt 0.696208 0.351492
vt 0.682645 0.351492
vt 0.682644 0.006182
vt 0.696208 0.006182
vt 0.723062 0.006182
vt 0.736625 0.006182
vt 0.736626 0.351492
vt 0.723062 0.351492
vt 0.731023 0.453882
vt 0.717460 0.453882
vt 0.717460 0.398526
vt 0.731023 0.398526
vt 0.627139 1.006469
vt 0.627139 0.642799
vt 0.681114 0.643720
vt 0.681114 1.007390
vt 0.772609 0.510692
vt 0.759046 0.510692
vt 0.759046 0.455336
vt 0.772609 0.455336
vt 0.625711 0.642800
vt 0.625706 1.006470
vt 0.571731 1.007390
vt 0.571736 0.643720
vt 0.922437 1.006467
vt 0.908874 1.006467
vt 0.908880 0.642800
vt 0.922443 0.642800
vt 0.923877 0.642800
vt 0.937440 0.642800
vt 0.937435 1.006467
vt 0.923871 1.006467
vt 0.754748 0.681148
vt 0.741184 0.681148
vt 0.741184 0.625791
vt 0.754748 0.625791
vt 0.368684 0.057553
vt 0.651284 0.057553
vt 0.651103 0.112909
vt 0.368503 0.112910
vt 0.742503 0.283425
vt 0.728940 0.283425
vt 0.728940 0.228068
vt 0.742503 0.228068
vt 0.610473 0.018808
vt 0.610473 0.308602
vt 0.556491 0.308787
vt 0.556491 0.018994
vt 0.652748 0.102207
vt 0.652748 0.088299
vt 0.935349 0.088299
vt 0.935349 0.102207
vt 0.935349 0.000733
vt 0.935349 0.014641
vt 0.652748 0.014641
vt 0.652748 0.000733
vt 0.757530 0.283425
vt 0.743967 0.283425
vt 0.743967 0.228068
vt 0.757530 0.228068
vt 0.627248 0.640007
vt 0.627248 0.280393
vt 0.681216 0.281683
vt 0.681216 0.641298
vt 0.761078 0.453882
vt 0.747515 0.453882
vt 0.747515 0.398526
vt 0.761078 0.398526
vt 0.625820 0.280412
vt 0.625699 0.640027
vt 0.571731 0.641298
vt 0.571852 0.281683
vt 0.967411 1.002414
vt 0.953848 1.002414
vt 0.953848 0.642800
vt 0.967411 0.642800
vt 0.938856 0.642800
vt 0.952420 0.642800
vt 0.952420 1.002414
vt 0.938856 1.002414
vt 0.724692 0.624327
vt 0.711129 0.624327
vt 0.711129 0.568970
vt 0.724692 0.568970
vt 0.738054 0.641298
vt 0.738054 0.353561
vt 0.791971 0.356281
vt 0.791925 0.637739
vt 0.356273 0.737959
vt 0.342710 0.737959
vt 0.342710 0.682602
vt 0.356273 0.682603
vt 0.761569 0.668038
vt 0.761569 0.955776
vt 0.707698 0.952217
vt 0.707651 0.670759
vt 0.156973 0.333722
vt 0.143410 0.333722
vt 0.143410 0.052264
vt 0.156973 0.052264
vt 0.168835 0.045986
vt 0.182398 0.045986
vt 0.182398 0.333722
vt 0.168835 0.333722
vt 0.772558 0.283425
vt 0.758995 0.283425
vt 0.758995 0.228068
vt 0.772558 0.228068
vt 0.350112 1.007390
vt 0.350112 0.637020
vt 0.404089 0.636270
vt 0.404089 1.006641
vt 0.296907 0.737959
vt 0.283344 0.737959
vt 0.283344 0.682602
vt 0.296907 0.682602
vt 0.459495 0.637020
vt 0.459495 1.007390
vt 0.405517 1.006641
vt 0.405517 0.636270
vt 0.952420 0.641298
vt 0.938856 0.641298
vt 0.938857 0.270926
vt 0.952420 0.270926
vt 0.953848 0.270927
vt 0.967411 0.270927
vt 0.967411 0.641298
vt 0.953848 0.641298
vt 0.761078 0.397062
vt 0.747515 0.397062
vt 0.747515 0.341705
vt 0.761078 0.341705
vt 0.128419 1.007390
vt 0.128419 0.635169
vt 0.182401 0.635098
vt 0.182401 1.007319
vt 0.341246 0.737959
vt 0.327683 0.737959
vt 0.327683 0.682603
vt 0.341246 0.682602
vt 0.237811 0.635168
vt 0.237811 1.007390
vt 0.183829 1.007319
vt 0.183829 0.635097
vt 0.922437 0.641298
vt 0.908874 0.641298
vt 0.908874 0.269073
vt 0.922437 0.269073
vt 0.923865 0.269073
vt 0.937429 0.269073
vt 0.937429 0.641298
vt 0.923866 0.641298
vt 0.712448 0.283425
vt 0.698885 0.283425
vt 0.698885 0.228068
vt 0.712448 0.228068
vt 0.183826 0.632993
vt 0.183826 0.335224
vt 0.237805 0.335827
vt 0.237805 0.633596
vt 0.727526 0.567513
vt 0.713963 0.567513
vt 0.713963 0.512156
vt 0.727526 0.512156
vt 0.236507 0.366296
vt 0.236507 0.664065
vt 0.182528 0.664669
vt 0.182528 0.366900
vt 0.071581 0.338777
vt 0.058017 0.338777
vt 0.058017 0.041009
vt 0.071581 0.041009
vt 0.088000 0.041010
vt 0.101563 0.041010
vt 0.101563 0.338777
vt 0.088000 0.338777
vt 0.746051 0.397062
vt 0.732488 0.397062
vt 0.732488 0.341705
vt 0.746051 0.341705
vt 0.294701 1.007390
vt 0.294701 0.636005
vt 0.348684 0.635997
vt 0.348684 1.007382
vt 0.754748 0.624327
vt 0.741184 0.624327
vt 0.741184 0.568970
vt 0.754748 0.568970
vt 0.293222 0.636005
vt 0.293273 1.007390
vt 0.239291 1.007390
vt 0.239239 0.636005
vt 0.892403 0.641296
vt 0.878840 0.641298
vt 0.878788 0.269914
vt 0.892352 0.269912
vt 0.893831 0.269914
vt 0.907394 0.269912
vt 0.907446 0.641296
vt 0.893883 0.641298
vt 0.715996 0.453882
vt 0.702433 0.453882
vt 0.702433 0.398526
vt 0.715996 0.398526
vt 0.793298 1.006823
vt 0.793298 0.726888
vt 0.847277 0.726248
vt 0.847277 1.006184
vt 0.769775 0.681148
vt 0.756212 0.681148
vt 0.756212 0.625791
vt 0.769775 0.625791
vt 0.847378 0.361362
vt 0.847378 0.641298
vt 0.793399 0.640659
vt 0.793399 0.360723
vt 0.197389 0.333722
vt 0.183826 0.333722
vt 0.183826 0.053789
vt 0.197389 0.053789
vt 0.224241 0.053789
vt 0.237804 0.053789
vt 0.237805 0.333722
vt 0.224241 0.333722
vt 0.757581 0.510692
vt 0.744018 0.510692
vt 0.744018 0.455336
vt 0.757581 0.455335
vt 0.294701 0.633943
vt 0.294701 0.292960
vt 0.348681 0.293513
vt 0.348681 0.634496
vt 0.746051 0.453882
vt 0.732488 0.453882
vt 0.732488 0.398526
vt 0.746051 0.398526
vt 0.293273 0.292968
vt 0.293273 0.633950
vt 0.239294 0.634503
vt 0.239294 0.293521
vt 0.086572 0.338777
vt 0.073008 0.338777
vt 0.073009 -0.002205
vt 0.086572 -0.002205
vt 0.697636 0.010509
vt 0.711199 0.010509
vt 0.711199 0.351492
vt 0.697636 0.351492
vt 0.731023 0.397062
vt 0.717460 0.397062
vt 0.717460 0.341705
vt 0.731023 0.341705
vt 0.460923 1.007390
vt 0.460923 0.638770
vt 0.514899 0.637926
vt 0.514899 1.006545
vt 0.742554 0.510692
vt 0.728991 0.510692
vt 0.728991 0.455336
vt 0.742554 0.455336
vt 0.537837 0.565528
vt 0.537837 0.934148
vt 0.483861 0.933303
vt 0.483861 0.564683
vt 0.982402 0.641298
vt 0.968839 0.641298
vt 0.968839 0.272676
vt 0.982402 0.272676
vt 0.738054 -0.016563
vt 0.751617 -0.016563
vt 0.751617 0.352059
vt 0.738054 0.352059
s 0
usemtl Wood
f 5/1/1 6/2/1 2/3/1 1/4/1
f 6/5/2 7/6/2 3/7/2 2/8/2
f 7/9/3 8/10/3 4/11/3 3/12/3
f 8/13/4 5/14/4 1/15/4 4/16/4
f 1/17/5 2/18/5 3/19/5 4/20/5
f 8/21/6 7/22/6 6/23/6 5/24/6
f 13/25/7 14/26/7 10/27/7 9/28/7
f 14/29/2 15/30/2 11/31/2 10/32/2
f 15/33/8 16/34/8 12/35/8 11/36/8
f 16/37/4 13/38/4 9/39/4 12/40/4
f 9/41/9 10/42/9 11/43/9 12/44/9
f 16/45/10 15/46/10 14/47/10 13/48/10
f 21/49/11 22/50/11 18/51/11 17/52/11
f 22/53/2 23/54/2 19/55/2 18/56/2
f 23/57/12 24/58/12 20/59/12 19/60/12
f 24/61/4 21/62/4 17/63/4 20/64/4
f 17/65/13 18/66/13 19/67/13 20/68/13
f 24/69/14 23/70/14 22/71/14 21/72/14
f 29/73/15 30/74/15 26/75/15 25/76/15
f 30/77/2 31/78/2 27/79/2 26/80/2
f 31/81/16 32/82/16 28/83/16 27/84/16
f 32/85/4 29/86/4 25/87/4 28/88/4
f 25/89/17 26/90/17 27/91/17 28/92/17
f 32/93/18 31/94/18 30/95/18 29/96/18
f 37/97/15 38/98/15 34/99/15 33/100/15
f 38/101/2 39/102/2 35/103/2 34/104/2
f 39/105/16 40/106/16 36/107/16 35/108/16
f 40/109/4 37/110/4 33/111/4 36/112/4
f 33/113/19 34/114/19 35/115/19 36/116/19
f 40/117/20 39/118/20 38/119/20 37/120/20
f 45/121/15 46/122/15 42/123/15 41/124/15
f 46/125/2 47/126/2 43/127/2 42/128/2
f 47/129/16 48/130/16 44/131/16 43/132/16
f 48/133/4 45/134/4 41/135/4 44/136/4
f 41/137/21 42/138/21 43/139/21 44/140/21
f 48/141/22 47/142/22 46/143/22 45/144/22
f 53/145/15 54/146/15 50/147/15 49/148/15
f 54/149/2 55/150/2 51/151/2 50/152/2
f 55/153/16 56/154/16 52/155/16 51/156/16
f 56/157/4 53/158/4 49/159/4 52/160/4
f 49/161/23 50/162/23 51/163/23 52/164/23
f 56/165/24 55/166/24 54/167/24 53/168/24
f 61/169/15 62/170/15 58/171/15 57/172/15
f 62/173/2 63/174/2 59/175/2 58/176/2
f 63/177/16 64/178/16 60/179/16 59/180/16
f 64/181/4 61/182/4 57/183/4 60/184/4
f 57/185/25 58/186/25 59/187/25 60/188/25
f 64/189/26 63/190/26 62/191/26 61/192/26
f 69/193/27 70/194/27 66/195/27 65/196/27
f 70/197/2 71/198/2 67/199/2 66/200/2
f 71/201/28 72/202/28 68/203/28 67/204/28
f 72/205/4 69/206/4 65/207/4 68/208/4
f 65/209/29 66/210/29 67/211/29 68/212/29
f 72/213/30 71/214/30 70/215/30 69/216/30
f 77/217/31 78/218/31 74/219/31 73/220/31
f 78/221/2 79/222/2 75/223/2 74/224/2
f 79/225/32 80/226/32 76/227/32 75/228/32
f 80/229/4 77/230/4 73/231/4 76/232/4
f 73/233/33 74/234/33 75/235/33 76/236/33
f 80/237/34 79/238/34 78/239/34 77/240/34
f 85/241/35 86/242/35 82/243/35 81/244/35
f 86/245/2 87/246/2 83/247/2 82/248/2
f 87/249/36 88/250/36 84/251/36 83/252/36
f 88/253/4 85/254/4 81/255/4 84/256/4
f 81/257/37 82/258/37 83/259/37 84/260/37
f 88/261/38 87/262/38 86/263/38 85/264/38
f 93/265/39 94/266/39 90/267/39 89/268/39
f 94/269/2 95/270/2 91/271/2 90/272/2
f 95/273/40 96/274/40 92/275/40 91/276/40
f 96/277/4 93/278/4 89/279/4 92/280/4
f 89/281/41 90/282/41 91/283/41 92/284/41
f 96/285/42 95/286/42 94/287/42 93/288/42
f 101/289/43 102/290/43 98/291/43 97/292/43
f 102/293/2 103/294/2 99/295/2 98/296/2
f 103/297/44 104/298/44 100/299/44 99/300/44
f 104/301/4 101/302/4 97/303/4 100/304/4
f 97/305/45 98/306/45 99/307/45 100/308/45
f 104/309/46 103/310/46 102/311/46 101/312/46
f 109/313/47 110/314/47 106/315/47 105/316/47
f 110/317/2 111/318/2 107/319/2 106/320/2
f 111/321/40 112/322/40 108/323/40 107/324/40
f 112/325/4 109/326/4 105/327/4 108/328/4
f 105/329/48 106/330/48 107/331/48 108/332/48
f 112/333/49 111/334/49 110/335/49 109/336/49
f 117/337/50 118/338/50 114/339/50 113/340/50
f 118/341/2 119/342/2 115/343/2 114/344/2
f 119/345/51 120/346/51 116/347/51 115/348/51
f 120/349/4 117/350/4 113/351/4 116/352/4
f 113/353/52 114/354/52 115/355/52 116/356/52
f 120/357/53 119/358/53 118/359/53 117/360/53
f 125/361/35 126/362/35 122/363/35 121/364/35
f 126/365/2 127/366/2 123/367/2 122/368/2
f 127/369/36 128/370/36 124/371/36 123/372/36
f 128/373/4 125/374/4 121/375/4 124/376/4
f 121/377/54 122/378/54 123/379/54 124/380/54
f 128/381/55 127/382/55 126/383/55 125/384/55
f 133/385/47 134/386/47 130/387/47 129/388/47
f 134/389/2 135/390/2 131/391/2 130/392/2
f 135/393/40 136/394/40 132/395/40 131/396/40
f 136/397/4 133/398/4 129/399/4 132/400/4
f 129/401/56 130/402/56 131/403/56 132/404/56
f 136/405/57 135/406/57 134/407/57 133/408/57
f 141/409/47 142/410/47 138/411/47 137/412/47
f 142/413/2 143/414/2 139/415/2 138/416/2
f 143/417/40 144/418/40 140/419/40 139/420/40
f 144/421/4 141/422/4 137/423/4 140/424/4
f 137/425/58 138/426/58 139/427/58 140/428/58
f 144/429/59 143/430/59 142/431/59 141/432/59
f 149/433/60 150/434/60 146/435/60 145/436/60
f 150/437/2 151/438/2 147/439/2 146/440/2
f 151/441/61 152/442/61 148/443/61 147/444/61
f 152/445/4 149/446/4 145/447/4 148/448/4
f 145/449/62 146/450/62 147/451/62 148/452/62
f 152/453/63 151/454/63 150/455/63 149/456/63
